<svg width="733" height="138" viewBox="0 0 733 138" fill="none" xmlns="http://www.w3.org/2000/svg">
<path d="M555.236 50.1392C554.652 50.1392 554.127 50.0232 553.66 49.7912C553.192 49.5592 552.818 49.241 552.536 48.8366C552.254 48.4323 552.1 47.9716 552.074 47.4545H553.267C553.313 47.9152 553.522 48.2964 553.893 48.598C554.268 48.8963 554.715 49.0455 555.236 49.0455C555.653 49.0455 556.025 48.9477 556.349 48.7521C556.678 48.5566 556.934 48.2881 557.12 47.9467C557.309 47.602 557.403 47.2126 557.403 46.7784C557.403 46.3343 557.306 45.9382 557.11 45.5902C556.918 45.2389 556.653 44.9621 556.315 44.7599C555.977 44.5578 555.59 44.455 555.156 44.4517C554.845 44.4484 554.525 44.4964 554.197 44.5959C553.869 44.692 553.598 44.8163 553.386 44.9688L552.233 44.8295L552.849 39.8182H558.139V40.9119H553.884L553.526 43.9148H553.585C553.794 43.7491 554.056 43.6115 554.371 43.5021C554.686 43.3928 555.014 43.3381 555.355 43.3381C555.978 43.3381 556.533 43.4872 557.021 43.7855C557.511 44.0805 557.896 44.4848 558.174 44.9986C558.456 45.5123 558.597 46.099 558.597 46.7585C558.597 47.4081 558.451 47.9882 558.159 48.4986C557.871 49.0057 557.473 49.4067 556.966 49.7017C556.459 49.9934 555.882 50.1392 555.236 50.1392Z" fill="white"/>
<path d="M425.733 31H423.033L428.793 10.3H431.073L436.863 31H434.163L432.993 26.26H426.903L425.733 31ZM429.933 14.68L427.653 23.92H432.213L429.933 14.68ZM436.477 10.3H448.747V12.64H443.887V31H441.307V12.64H436.477V10.3ZM467.263 13.45L465.313 14.77C464.503 13.39 463.633 12.4 461.653 12.4C459.883 12.4 458.833 13.6 458.833 15.64C458.833 17.89 459.883 18.76 462.433 19.48C465.613 20.38 467.593 22.03 467.593 25.45C467.593 28.15 466.123 31.24 461.923 31.24C459.193 31.24 457.213 30.1 455.953 27.85L457.993 26.47C459.103 28.06 460.033 28.9 461.923 28.9C464.503 28.9 465.043 27.16 465.043 25.57C465.043 23.77 464.473 22.54 461.413 21.7C458.323 20.86 456.253 19.09 456.253 15.64C456.253 12.76 457.903 10.06 461.713 10.06C464.383 10.06 466.063 11.17 467.263 13.45ZM468.499 10.3H480.769V12.64H475.909V31H473.329V12.64H468.499V10.3ZM483.096 31H480.396L486.156 10.3H488.436L494.226 31H491.526L490.356 26.26H484.266L483.096 31ZM487.296 14.68L485.016 23.92H489.576L487.296 14.68ZM501.743 20.59H507.833V21.79C507.833 28.48 505.403 31.24 501.713 31.24C497.993 31.24 495.653 28.48 495.653 21.79V19.51C495.653 12.82 497.993 10.06 501.713 10.06C505.073 10.06 507.173 12.19 507.713 16.75H505.283C504.743 13.66 503.723 12.4 501.713 12.4C499.283 12.4 498.233 14.26 498.233 19.51V21.79C498.233 27.04 499.283 28.9 501.713 28.9C503.873 28.9 505.163 27.28 505.253 22.93H501.743V20.59ZM511.083 10.3H521.193V12.64H513.663V19.12H520.473V21.46H513.663V28.66H521.193V31H511.083V10.3ZM533.005 10.3V31H530.425V10.3H533.005ZM535.533 10.3H538.263L542.643 26.5L547.023 10.3H549.753L543.783 31H541.533L535.533 10.3ZM452.499 61H447.099V40.3H452.499C456.159 40.3 458.499 42.88 458.499 49.57V51.73C458.499 58.42 456.159 61 452.499 61ZM452.499 58.66C454.899 58.66 455.919 56.86 455.919 51.73V49.57C455.919 44.44 454.869 42.64 452.499 42.64H449.679V58.66H452.499ZM473.597 61H470.867L467.537 52.27H464.327V61H461.747V40.3H467.087C470.927 40.3 473.177 42.28 473.177 46.3C473.177 49.21 472.037 51.04 469.967 51.82L473.597 61ZM464.327 49.93H467.087C469.727 49.93 470.597 48.85 470.597 46.3C470.597 43.72 469.727 42.64 467.087 42.64H464.327V49.93ZM487.646 51.79C487.646 58.48 485.306 61.24 481.586 61.24C477.866 61.24 475.526 58.48 475.526 51.79V49.51C475.526 42.82 477.866 40.06 481.586 40.06C485.306 40.06 487.646 42.82 487.646 49.51V51.79ZM478.106 49.51V51.79C478.106 57.04 479.126 58.9 481.586 58.9C484.046 58.9 485.066 57.04 485.066 51.79V49.51C485.066 44.26 484.046 42.4 481.586 42.4C479.126 42.4 478.106 44.26 478.106 49.51ZM496.297 53.11H493.477V61H490.897V40.3H496.297C500.107 40.3 502.327 42.7 502.327 46.72C502.327 50.71 500.137 53.11 496.297 53.11ZM493.477 50.77H496.297C498.907 50.77 499.747 49.27 499.747 46.72C499.747 44.14 498.907 42.64 496.297 42.64H493.477V50.77ZM515.456 43.45L513.506 44.77C512.696 43.39 511.826 42.4 509.846 42.4C508.076 42.4 507.026 43.6 507.026 45.64C507.026 47.89 508.076 48.76 510.626 49.48C513.806 50.38 515.786 52.03 515.786 55.45C515.786 58.15 514.316 61.24 510.116 61.24C507.386 61.24 505.406 60.1 504.146 57.85L506.186 56.47C507.296 58.06 508.226 58.9 510.116 58.9C512.696 58.9 513.236 57.16 513.236 55.57C513.236 53.77 512.666 52.54 509.606 51.7C506.516 50.86 504.446 49.09 504.446 45.64C504.446 42.76 506.096 40.06 509.906 40.06C512.576 40.06 514.256 41.17 515.456 43.45ZM523.079 40.3H535.349V42.64H530.489V61H527.909V42.64H523.079V40.3ZM548.789 51.79C548.789 58.48 546.449 61.24 542.729 61.24C539.009 61.24 536.669 58.48 536.669 51.79V49.51C536.669 42.82 539.009 40.06 542.729 40.06C546.449 40.06 548.789 42.82 548.789 49.51V51.79ZM539.249 49.51V51.79C539.249 57.04 540.269 58.9 542.729 58.9C545.189 58.9 546.209 57.04 546.209 51.79V49.51C546.209 44.26 545.189 42.4 542.729 42.4C540.269 42.4 539.249 44.26 539.249 49.51Z" fill="white"/>
<g clip-path="url(#clip0_668_1394)">
<path d="M224.891 117.423L224.812 135.923L166.817 135.775L135.781 113.042L135.679 98.2196L166.544 60.4484L134.181 38.6346C134.181 38.6346 139.039 20.0214 149.244 14.3126C160.959 7.76392 160.142 10.4424 160.142 10.4424C160.142 10.4424 166.294 6.74246 172.64 10.4424C178.985 14.1423 202.971 27.5348 202.971 27.5348C202.971 27.5348 209.158 13.6089 223.597 11.7476C234.676 10.3176 248.559 10.4424 248.559 10.4424C254.814 14.1196 271.036 21.9962 271.036 21.9962C271.036 21.9962 269.355 5.95935 276.734 4.05263C284.113 2.14591 282.024 2.63394 282.024 2.63394L300.436 12.1448L305.34 1.82812H317.157L347.874 24.2434L338.339 46.4317L353.017 57.1457C353.017 57.1457 357.228 59.2453 357.228 63.3992C357.228 67.5532 358.715 79.8674 353.323 83.783C347.931 87.6986 340.269 85.7691 340.269 85.7691L324.57 75.0211L319.564 85.5421L307.781 85.4627L293.898 75.4297C293.898 75.4297 292.694 75.634 289.868 78.914L287.041 82.194C287.041 82.194 301.39 91.739 299.982 107.015C298.574 122.292 292.91 137.364 266.098 137.421C254.996 137.443 248.151 133.732 248.151 133.732L243.304 130.861L224.869 117.412L224.891 117.423Z" stroke="#FDE9AA" stroke-miterlimit="10"/>
<path d="M192.607 113.099H134.816V98.2769L163.717 58.1904C168.406 51.6871 169.915 45.0363 169.915 38.5217C169.915 31.258 166.737 27.785 162.196 27.785C157.656 27.785 155.238 31.5644 154.636 38.5217H133C133 20.3738 146.769 7.21973 163.865 7.21973C180.96 7.21973 194.878 21.2818 194.878 38.3741C194.878 52.4362 186.103 64.0922 180.654 72.2524L167.645 92.2162H192.607V113.088V113.099Z" fill="#FDE9AA"/>
<path d="M200.02 84.2031C200.02 71.3441 206.683 62.8774 213.937 58.9391C206.831 54.5582 201.223 46.693 201.223 35.7974C201.223 16.1287 217.411 7.20801 233.905 7.20801C250.398 7.20801 266.586 16.1287 266.586 35.7974C266.586 46.693 260.989 54.5582 253.883 58.9391C261.148 62.8774 267.8 71.3441 267.8 84.2031C267.8 104.927 252.521 114.608 233.916 114.608C215.311 114.608 200.031 104.927 200.031 84.2031H200.02ZM242.838 81.1728C242.838 72.7061 238.445 68.6202 233.916 68.6202C229.387 68.6202 224.994 72.7061 224.994 81.1728C224.994 89.038 228.774 93.8842 233.916 93.8842C239.058 93.8842 242.838 89.0494 242.838 81.1728ZM233.916 28.0798C229.523 28.0798 226.356 32.1656 226.356 38.9753C226.356 45.785 229.534 50.1659 233.916 50.1659C238.298 50.1659 241.476 45.9326 241.476 38.9753C241.476 32.018 238.298 28.0798 233.916 28.0798Z" fill="#FDE9AA"/>
<path d="M267.176 19.6923V13.7792C267.176 5.22165 271.853 0.988281 279.436 0.988281C287.018 0.988281 291.695 5.22165 291.695 13.7792V19.6923C291.695 28.2498 287.2 32.6534 279.436 32.6534C271.671 32.6534 267.176 28.2498 267.176 19.6923ZM316.305 1.88489L287.382 62.7296H275.565L304.488 1.88489H316.305ZM280.854 20.7591V12.9961C280.854 10.4424 280.321 9.909 279.447 9.909C278.573 9.909 278.039 10.4424 278.039 12.9961V20.7591C278.039 23.3128 278.573 23.8462 279.447 23.8462C280.321 23.8462 280.854 23.3128 280.854 20.7591ZM300.527 50.6538V44.7407C300.527 36.1831 305.204 31.9498 312.787 31.9498C320.369 31.9498 325.046 36.1831 325.046 44.7407V50.6538C325.046 59.2113 320.551 63.6149 312.787 63.6149C305.022 63.6149 300.527 59.2113 300.527 50.6538ZM314.194 51.7093V43.9462C314.194 41.3926 313.661 40.8591 312.787 40.8591C311.912 40.8591 311.379 41.3926 311.379 43.9462V51.7093C311.379 54.2629 311.912 54.7963 312.787 54.7963C313.661 54.7963 314.194 54.2629 314.194 51.7093Z" fill="#FDE9AA"/>
</g>
<line x1="395" y1="3" x2="395" y2="136.982" stroke="#FF005A" stroke-width="2"/>
<path d="M589.709 113.8L605.293 82.9903L588.193 69.4408C588.193 69.4408 570.649 53.2112 576.029 33.9693C581.41 14.7274 591.442 7.23677 609.465 6.95043C627.489 6.6641 642.388 21.2902 642.388 21.2902C642.388 21.2902 641.203 3.9038 648.123 2.28885C655.042 0.673909 659.625 -1.52516 675.254 11.9671L680.191 1.56728L692.753 2.18577L723.123 24.3483L713.33 46.591L728.07 57.4032C728.07 57.4032 732.3 60.278 732.3 64.092C732.3 67.906 731.741 78.9129 731.331 79.9093C730.92 80.9058 726.668 90.0915 714.231 85.8995L699.81 75.6715L694.475 86.0598L682.186 85.7506L673.294 79.2335C673.294 79.2335 670.569 87.125 668.677 91.5003C666.784 95.8755 647.302 136.891 647.302 136.891L621.207 136.81L589.698 113.812L589.709 113.8Z" stroke="#FDE9AA" stroke-miterlimit="10"/>
<path d="M610.229 71.9718C607.037 73.3462 605.065 73.8043 601.417 73.8043C587.589 73.8043 575.437 60.5297 575.437 42.0552C575.437 16.4108 591.385 6.9502 609.465 6.9502C627.546 6.9502 643.654 16.4108 643.654 42.0552C643.654 50.7599 640.918 60.8275 634.237 75.1788L615.849 113.8H589.709L610.218 71.9718H610.229ZM609.465 28.0132C602.329 28.0132 600.653 33.3505 600.653 40.6808C600.653 48.011 602.329 53.3484 609.465 53.3484C616.602 53.3484 618.426 48.011 618.426 40.6808C618.426 33.3505 616.602 28.0132 609.465 28.0132Z" fill="#FDE9AA"/>
<path d="M642.719 19.5375V13.5702C642.719 4.93427 647.416 0.662109 655.031 0.662109C662.646 0.662109 667.343 4.93427 667.343 13.5702V19.5375C667.343 28.1734 662.828 32.6174 655.031 32.6174C647.233 32.6174 642.719 28.1734 642.719 19.5375ZM692.058 1.56694L662.999 62.9692H651.132L680.19 1.56694H692.058ZM656.456 20.6141V12.7799C656.456 10.2029 655.92 9.66457 655.042 9.66457C654.164 9.66457 653.628 10.2029 653.628 12.7799V20.6141C653.628 23.1912 654.164 23.7295 655.042 23.7295C655.92 23.7295 656.456 23.1912 656.456 20.6141ZM676.212 50.7827V44.8154C676.212 36.1795 680.908 31.9073 688.524 31.9073C696.139 31.9073 700.836 36.1795 700.836 44.8154V50.7827C700.836 59.4186 696.321 63.8626 688.524 63.8626C680.726 63.8626 676.212 59.4186 676.212 50.7827ZM689.937 51.8479V44.0137C689.937 41.4366 689.401 40.8983 688.524 40.8983C687.646 40.8983 687.11 41.4366 687.11 44.0137V51.8479C687.11 54.4249 687.646 54.9632 688.524 54.9632C689.401 54.9632 689.937 54.4249 689.937 51.8479Z" fill="#FDE9AA"/>
<path d="M38.6223 19.54C37.5723 19.54 37.0623 20.26 36.6423 21.07H34.2723V10.3H42.7923V12.88H36.7323V18.19C37.2723 17.5 38.1423 16.96 39.2823 16.96C41.9823 16.96 43.4823 19.54 43.4823 24.55C43.4823 28.84 41.7723 31.24 38.5623 31.24C35.9823 31.24 34.0623 28.99 33.8823 26.14H36.4023C36.7323 27.88 37.3623 28.9 38.7123 28.9C40.1223 28.9 40.9023 27.79 40.9023 24.55C40.9023 21.31 40.3623 19.54 38.6223 19.54ZM45.2005 23.41V21.25H51.5305V23.41H45.2005ZM51.9917 10.3H54.9317L58.2317 19L61.5617 10.3H64.5017L59.5217 22.12V31H56.9417V22.12L51.9917 10.3ZM67.0283 10.3H77.1383V12.64H69.6083V19.12H76.4183V21.46H69.6083V28.66H77.1383V31H67.0283V10.3ZM81.024 31H78.324L84.084 10.3H86.364L92.154 31H89.454L88.284 26.26H82.194L81.024 31ZM85.224 14.68L82.944 23.92H87.504L85.224 14.68ZM106.271 31H103.541L100.211 22.27H97.0009V31H94.4209V10.3H99.7609C103.601 10.3 105.851 12.28 105.851 16.3C105.851 19.21 104.711 21.04 102.641 21.82L106.271 31ZM97.0009 19.93H99.7609C102.401 19.93 103.271 18.85 103.271 16.3C103.271 13.72 102.401 12.64 99.7609 12.64H97.0009V19.93ZM12.6322 43.45L10.6822 44.77C9.87219 43.39 9.00219 42.4 7.02219 42.4C5.25219 42.4 4.20219 43.6 4.20219 45.64C4.20219 47.89 5.25219 48.76 7.80219 49.48C10.9822 50.38 12.9622 52.03 12.9622 55.45C12.9622 58.15 11.4922 61.24 7.29219 61.24C4.56219 61.24 2.58219 60.1 1.32219 57.85L3.36219 56.47C4.47219 58.06 5.40219 58.9 7.29219 58.9C9.87219 58.9 10.4122 57.16 10.4122 55.57C10.4122 53.77 9.84219 52.54 6.78219 51.7C3.69219 50.86 1.62219 49.09 1.62219 45.64C1.62219 42.76 3.27219 40.06 7.08219 40.06C9.75219 40.06 11.4322 41.17 12.6322 43.45ZM25.7089 40.3H28.2889V52.57C28.2889 58.69 25.9189 61.24 22.2289 61.24C18.5089 61.24 16.1689 58.69 16.1689 52.6V40.3H18.7489V52.6C18.7489 57.25 19.8589 58.9 22.2289 58.9C24.5989 58.9 25.7089 57.25 25.7089 52.6V40.3ZM44.2201 61H41.4901L38.1601 52.27H34.9501V61H32.3701V40.3H37.7101C41.5501 40.3 43.8001 42.28 43.8001 46.3C43.8001 49.21 42.6601 51.04 40.5901 51.82L44.2201 61ZM34.9501 49.93H37.7101C40.3501 49.93 41.2201 48.85 41.2201 46.3C41.2201 43.72 40.3501 42.64 37.7101 42.64H34.9501V49.93ZM44.9548 40.3H47.6848L52.0648 56.5L56.4448 40.3H59.1748L53.2048 61H50.9548L44.9548 40.3ZM64.2819 40.3V61H61.7019V40.3H64.2819ZM66.8103 40.3H69.5403L73.9203 56.5L78.3003 40.3H81.0303L75.0603 61H72.8103L66.8103 40.3ZM83.4849 61H80.7849L86.5449 40.3H88.8249L94.6149 61H91.9149L90.7449 56.26H84.6549L83.4849 61ZM87.6849 44.68L85.4049 53.92H89.9649L87.6849 44.68ZM99.4618 40.3V58.66H106.992V61H96.8818V40.3H99.4618Z" fill="white"/>
<path d="M111.236 50.1392C110.652 50.1392 110.127 50.0232 109.66 49.7912C109.192 49.5592 108.818 49.241 108.536 48.8366C108.254 48.4323 108.1 47.9716 108.074 47.4545H109.267C109.313 47.9152 109.522 48.2964 109.893 48.598C110.268 48.8963 110.715 49.0455 111.236 49.0455C111.653 49.0455 112.025 48.9477 112.349 48.7521C112.678 48.5566 112.934 48.2881 113.12 47.9467C113.309 47.602 113.403 47.2126 113.403 46.7784C113.403 46.3343 113.306 45.9382 113.11 45.5902C112.918 45.2389 112.653 44.9621 112.315 44.7599C111.977 44.5578 111.59 44.455 111.156 44.4517C110.845 44.4484 110.525 44.4964 110.197 44.5959C109.869 44.692 109.598 44.8163 109.386 44.9688L108.233 44.8295L108.849 39.8182H114.139V40.9119H109.884L109.526 43.9148H109.585C109.794 43.7491 110.056 43.6115 110.371 43.5021C110.686 43.3928 111.014 43.3381 111.355 43.3381C111.978 43.3381 112.533 43.4872 113.021 43.7855C113.511 44.0805 113.896 44.4848 114.174 44.9986C114.456 45.5123 114.597 46.099 114.597 46.7585C114.597 47.4081 114.451 47.9882 114.159 48.4986C113.871 49.0057 113.473 49.4067 112.966 49.7017C112.459 49.9934 111.882 50.1392 111.236 50.1392Z" fill="white"/>
<defs>
<clipPath id="clip0_668_1394">
<rect width="225" height="137" fill="white" transform="translate(133 1)"/>
</clipPath>
</defs>
</svg>
