<svg width="336" height="336" viewBox="0 0 336 336" fill="none" xmlns="http://www.w3.org/2000/svg">
<path d="M38.6223 64.4033C37.5723 64.4033 37.0623 65.1233 36.6423 65.9333H34.2723V55.1633H42.7923V57.7433H36.7323V63.0533C37.2723 62.3633 38.1423 61.8233 39.2823 61.8233C41.9823 61.8233 43.4823 64.4033 43.4823 69.4133C43.4823 73.7033 41.7723 76.1033 38.5623 76.1033C35.9823 76.1033 34.0623 73.8533 33.8823 71.0033H36.4023C36.7323 72.7433 37.3623 73.7633 38.7123 73.7633C40.1223 73.7633 40.9023 72.6533 40.9023 69.4133C40.9023 66.1733 40.3623 64.4033 38.6223 64.4033ZM45.2005 68.2733V66.1133H51.5305V68.2733H45.2005ZM51.9917 55.1633H54.9317L58.2317 63.8633L61.5617 55.1633H64.5017L59.5217 66.9833V75.8633H56.9417V66.9833L51.9917 55.1633ZM67.0283 55.1633H77.1383V57.5033H69.6083V63.9833H76.4183V66.3233H69.6083V73.5233H77.1383V75.8633H67.0283V55.1633ZM81.024 75.8633H78.324L84.084 55.1633H86.364L92.154 75.8633H89.454L88.284 71.1233H82.194L81.024 75.8633ZM85.224 59.5433L82.944 68.7833H87.504L85.224 59.5433ZM106.271 75.8633H103.541L100.211 67.1333H97.0009V75.8633H94.4209V55.1633H99.7609C103.601 55.1633 105.851 57.1433 105.851 61.1633C105.851 64.0733 104.711 65.9033 102.641 66.6833L106.271 75.8633ZM97.0009 64.7933H99.7609C102.401 64.7933 103.271 63.7133 103.271 61.1633C103.271 58.5833 102.401 57.5033 99.7609 57.5033H97.0009V64.7933ZM12.6322 88.3133L10.6822 89.6333C9.87219 88.2533 9.00219 87.2633 7.02219 87.2633C5.25219 87.2633 4.20219 88.4633 4.20219 90.5033C4.20219 92.7533 5.25219 93.6233 7.80219 94.3433C10.9822 95.2433 12.9622 96.8933 12.9622 100.313C12.9622 103.013 11.4922 106.103 7.29219 106.103C4.56219 106.103 2.58219 104.963 1.32219 102.713L3.36219 101.333C4.47219 102.923 5.40219 103.763 7.29219 103.763C9.87219 103.763 10.4122 102.023 10.4122 100.433C10.4122 98.6333 9.84219 97.4033 6.78219 96.5633C3.69219 95.7233 1.62219 93.9533 1.62219 90.5033C1.62219 87.6233 3.27219 84.9233 7.08219 84.9233C9.75219 84.9233 11.4322 86.0333 12.6322 88.3133ZM25.7089 85.1633H28.2889V97.4333C28.2889 103.553 25.9189 106.103 22.2289 106.103C18.5089 106.103 16.1689 103.553 16.1689 97.4633V85.1633H18.7489V97.4633C18.7489 102.113 19.8589 103.763 22.2289 103.763C24.5989 103.763 25.7089 102.113 25.7089 97.4633V85.1633ZM44.2201 105.863H41.4901L38.1601 97.1333H34.9501V105.863H32.3701V85.1633H37.7101C41.5501 85.1633 43.8001 87.1433 43.8001 91.1633C43.8001 94.0733 42.6601 95.9033 40.5901 96.6833L44.2201 105.863ZM34.9501 94.7933H37.7101C40.3501 94.7933 41.2201 93.7133 41.2201 91.1633C41.2201 88.5833 40.3501 87.5033 37.7101 87.5033H34.9501V94.7933ZM44.9548 85.1633H47.6848L52.0648 101.363L56.4448 85.1633H59.1748L53.2048 105.863H50.9548L44.9548 85.1633ZM64.2819 85.1633V105.863H61.7019V85.1633H64.2819ZM66.8103 85.1633H69.5403L73.9203 101.363L78.3003 85.1633H81.0303L75.0603 105.863H72.8103L66.8103 85.1633ZM83.4849 105.863H80.7849L86.5449 85.1633H88.8249L94.6149 105.863H91.9149L90.7449 101.123H84.6549L83.4849 105.863ZM87.6849 89.5433L85.4049 98.7833H89.9649L87.6849 89.5433ZM99.4618 85.1633V103.523H106.992V105.863H96.8818V85.1633H99.4618Z" fill="white"/>
<g clip-path="url(#clip0_905_1435)">
<path d="M217.864 123.189L217.794 139.529L166.758 139.398L139.447 119.32L139.357 106.229L166.519 72.8688L138.039 53.6026C138.039 53.6026 142.314 37.1632 151.295 32.1212C161.604 26.3373 160.885 28.703 160.885 28.703C160.885 28.703 166.299 25.4351 171.883 28.703C177.467 31.9708 198.575 43.7991 198.575 43.7991C198.575 43.7991 204.019 31.4997 216.725 29.8557C226.475 28.5927 238.692 28.703 238.692 28.703C244.196 31.9507 258.471 38.9074 258.471 38.9074C258.471 38.9074 256.993 24.7435 263.486 23.0594C269.979 21.3754 268.141 21.8064 268.141 21.8064L284.344 30.2066L288.659 21.0947H299.058L326.089 40.8922L317.698 60.4891L330.615 69.9518C330.615 69.9518 334.321 71.8063 334.321 75.4751C334.321 79.1438 335.629 90.0199 330.884 93.4782C326.139 96.9365 319.396 95.2324 319.396 95.2324L305.581 85.7396L301.176 95.0319L290.807 94.9617L278.59 86.1005C278.59 86.1005 277.531 86.2809 275.044 89.1779L272.556 92.0748C272.556 92.0748 285.183 100.505 283.944 113.997C282.705 127.49 277.721 140.802 254.126 140.852C244.356 140.872 238.332 137.594 238.332 137.594L234.067 135.058L217.844 123.179L217.864 123.189Z" stroke="#FDE9AA" stroke-miterlimit="10"/>
<path d="M189.454 119.371H138.598V106.279L164.031 70.8743C168.157 65.1306 169.486 59.2565 169.486 53.5027C169.486 47.0873 166.689 44.02 162.693 44.02C158.697 44.02 156.569 47.358 156.04 53.5027H137C137 37.4743 149.117 25.8564 164.161 25.8564C179.205 25.8564 191.452 38.2762 191.452 53.3724C191.452 65.7922 183.73 76.0868 178.936 83.2941L167.488 100.926H189.454V119.361V119.371Z" fill="#FDE9AA"/>
<path d="M195.978 93.8497C195.978 82.4924 201.841 75.0145 208.225 71.5362C201.971 67.6669 197.036 60.7203 197.036 51.0972C197.036 33.7256 211.281 25.8467 225.796 25.8467C240.311 25.8467 254.555 33.7256 254.555 51.0972C254.555 60.7203 249.631 67.6669 243.377 71.5362C249.77 75.0145 255.624 82.4924 255.624 93.8497C255.624 112.154 242.179 120.704 225.806 120.704C209.433 120.704 195.988 112.154 195.988 93.8497H195.978ZM233.658 91.1732C233.658 83.6953 229.792 80.0867 225.806 80.0867C221.82 80.0867 217.954 83.6953 217.954 91.1732C217.954 98.1199 221.281 102.4 225.806 102.4C230.331 102.4 233.658 98.1299 233.658 91.1732ZM225.806 44.2809C221.94 44.2809 219.153 47.8895 219.153 53.9039C219.153 59.9183 221.95 63.7876 225.806 63.7876C229.662 63.7876 232.459 60.0487 232.459 53.9039C232.459 47.7592 229.662 44.2809 225.806 44.2809Z" fill="#FDE9AA"/>
<path d="M255.075 36.8731V31.6506C255.075 24.0925 259.19 20.3535 265.863 20.3535C272.536 20.3535 276.652 24.0925 276.652 31.6506V36.8731C276.652 44.4312 272.696 48.3205 265.863 48.3205C259.031 48.3205 255.075 44.4312 255.075 36.8731ZM298.309 21.1454L272.856 74.8842H262.457L287.91 21.1454H298.309ZM267.112 37.8154V30.9589C267.112 28.7035 266.642 28.2324 265.873 28.2324C265.104 28.2324 264.635 28.7035 264.635 30.9589V37.8154C264.635 40.0708 265.104 40.5419 265.873 40.5419C266.642 40.5419 267.112 40.0708 267.112 37.8154ZM284.424 64.2186V58.9961C284.424 51.438 288.539 47.6991 295.212 47.6991C301.885 47.6991 306.001 51.438 306.001 58.9961V64.2186C306.001 71.7768 302.045 75.6661 295.212 75.6661C288.379 75.6661 284.424 71.7768 284.424 64.2186ZM296.451 65.1509V58.2944C296.451 56.039 295.981 55.5679 295.212 55.5679C294.443 55.5679 293.973 56.039 293.973 58.2944V65.1509C293.973 67.4063 294.443 67.8774 295.212 67.8774C295.981 67.8774 296.451 67.4063 296.451 65.1509Z" fill="#FDE9AA"/>
</g>
<path d="M110.935 95.0025C110.352 95.0025 109.826 94.8865 109.359 94.6545C108.892 94.4225 108.517 94.1043 108.235 93.6999C107.954 93.2956 107.8 92.8349 107.773 92.3178H108.966C109.013 92.7785 109.221 93.1597 109.593 93.4613C109.967 93.7596 110.415 93.9087 110.935 93.9087C111.353 93.9087 111.724 93.811 112.049 93.6154C112.377 93.4199 112.634 93.1514 112.819 92.81C113.008 92.4653 113.103 92.0759 113.103 91.6417C113.103 91.1976 113.005 90.8015 112.809 90.4535C112.617 90.1022 112.352 89.8254 112.014 89.6232C111.676 89.421 111.29 89.3183 110.855 89.315C110.544 89.3117 110.224 89.3597 109.896 89.4592C109.568 89.5553 109.298 89.6796 109.086 89.832L107.932 89.6928L108.549 84.6815H113.838V85.7752H109.583L109.225 88.7781H109.284C109.493 88.6123 109.755 88.4748 110.07 88.3654C110.385 88.256 110.713 88.2013 111.054 88.2013C111.677 88.2013 112.233 88.3505 112.72 88.6488C113.21 88.9438 113.595 89.3481 113.873 89.8619C114.155 90.3756 114.296 90.9622 114.296 91.6218C114.296 92.2714 114.15 92.8514 113.858 93.3619C113.57 93.869 113.172 94.27 112.665 94.565C112.158 94.8567 111.581 95.0025 110.935 95.0025Z" fill="white"/>
<line x1="100.509" y1="170.363" x2="234.491" y2="170.363" stroke="#FF005A" stroke-width="2"/>
<path d="M132.236 269.217C131.652 269.217 131.127 269.101 130.66 268.869C130.192 268.637 129.818 268.319 129.536 267.915C129.254 267.51 129.1 267.05 129.074 266.533H130.267C130.313 266.993 130.522 267.375 130.893 267.676C131.268 267.974 131.715 268.124 132.236 268.124C132.653 268.124 133.025 268.026 133.349 267.83C133.678 267.635 133.934 267.366 134.12 267.025C134.309 266.68 134.403 266.291 134.403 265.857C134.403 265.412 134.306 265.016 134.11 264.668C133.918 264.317 133.653 264.04 133.315 263.838C132.977 263.636 132.59 263.533 132.156 263.53C131.845 263.527 131.525 263.575 131.197 263.674C130.869 263.77 130.598 263.894 130.386 264.047L129.233 263.908L129.849 258.896H135.139V259.99H130.884L130.526 262.993H130.585C130.794 262.827 131.056 262.69 131.371 262.58C131.686 262.471 132.014 262.416 132.355 262.416C132.978 262.416 133.533 262.565 134.021 262.864C134.511 263.159 134.896 263.563 135.174 264.077C135.456 264.59 135.597 265.177 135.597 265.837C135.597 266.486 135.451 267.066 135.159 267.577C134.871 268.084 134.473 268.485 133.966 268.78C133.459 269.071 132.882 269.217 132.236 269.217Z" fill="white"/>
<path d="M3.73297 249.363H1.03297L6.79297 228.663H9.07297L14.863 249.363H12.163L10.993 244.623H4.90297L3.73297 249.363ZM7.93297 233.043L5.65297 242.283H10.213L7.93297 233.043ZM14.4774 228.663H26.7474V231.003H21.8874V249.363H19.3074V231.003H14.4774V228.663ZM45.263 231.813L43.313 233.133C42.503 231.753 41.633 230.763 39.653 230.763C37.883 230.763 36.833 231.963 36.833 234.003C36.833 236.253 37.883 237.123 40.433 237.843C43.613 238.743 45.593 240.393 45.593 243.813C45.593 246.513 44.123 249.603 39.923 249.603C37.193 249.603 35.213 248.463 33.953 246.213L35.993 244.833C37.103 246.423 38.033 247.263 39.923 247.263C42.503 247.263 43.043 245.523 43.043 243.933C43.043 242.133 42.473 240.903 39.413 240.063C36.323 239.223 34.253 237.453 34.253 234.003C34.253 231.123 35.903 228.423 39.713 228.423C42.383 228.423 44.063 229.533 45.263 231.813ZM46.4989 228.663H58.7689V231.003H53.9089V249.363H51.3289V231.003H46.4989V228.663ZM61.0963 249.363H58.3963L64.1563 228.663H66.4363L72.2263 249.363H69.5263L68.3563 244.623H62.2663L61.0963 249.363ZM65.2963 233.043L63.0163 242.283H67.5763L65.2963 233.043ZM79.7431 238.953H85.8331V240.153C85.8331 246.843 83.4031 249.603 79.7131 249.603C75.9931 249.603 73.6531 246.843 73.6531 240.153V237.873C73.6531 231.183 75.9931 228.423 79.7131 228.423C83.0731 228.423 85.1731 230.553 85.7131 235.113H83.2831C82.7431 232.023 81.7231 230.763 79.7131 230.763C77.2831 230.763 76.2331 232.623 76.2331 237.873V240.153C76.2331 245.403 77.2831 247.263 79.7131 247.263C81.8731 247.263 83.1631 245.643 83.2531 241.293H79.7431V238.953ZM89.083 228.663H99.193V231.003H91.663V237.483H98.473V239.823H91.663V247.023H99.193V249.363H89.083V228.663ZM111.005 228.663V249.363H108.425V228.663H111.005ZM113.533 228.663H116.263L120.643 244.863L125.023 228.663H127.753L121.783 249.363H119.533L113.533 228.663ZM30.4986 279.363H25.0986V258.663H30.4986C34.1586 258.663 36.4986 261.243 36.4986 267.933V270.093C36.4986 276.783 34.1586 279.363 30.4986 279.363ZM30.4986 277.023C32.8986 277.023 33.9186 275.223 33.9186 270.093V267.933C33.9186 262.803 32.8686 261.003 30.4986 261.003H27.6786V277.023H30.4986ZM51.597 279.363H48.867L45.537 270.633H42.327V279.363H39.747V258.663H45.087C48.927 258.663 51.177 260.643 51.177 264.663C51.177 267.573 50.037 269.403 47.967 270.183L51.597 279.363ZM42.327 268.293H45.087C47.727 268.293 48.597 267.213 48.597 264.663C48.597 262.083 47.727 261.003 45.087 261.003H42.327V268.293ZM65.6462 270.153C65.6462 276.843 63.3062 279.603 59.5862 279.603C55.8662 279.603 53.5262 276.843 53.5262 270.153V267.873C53.5262 261.183 55.8662 258.423 59.5862 258.423C63.3062 258.423 65.6462 261.183 65.6462 267.873V270.153ZM56.1062 267.873V270.153C56.1062 275.403 57.1262 277.263 59.5862 277.263C62.0462 277.263 63.0662 275.403 63.0662 270.153V267.873C63.0662 262.623 62.0462 260.763 59.5862 260.763C57.1262 260.763 56.1062 262.623 56.1062 267.873ZM74.2974 271.473H71.4774V279.363H68.8974V258.663H74.2974C78.1074 258.663 80.3274 261.063 80.3274 265.083C80.3274 269.073 78.1374 271.473 74.2974 271.473ZM71.4774 269.133H74.2974C76.9074 269.133 77.7474 267.633 77.7474 265.083C77.7474 262.503 76.9074 261.003 74.2974 261.003H71.4774V269.133ZM93.4564 261.813L91.5064 263.133C90.6964 261.753 89.8264 260.763 87.8464 260.763C86.0764 260.763 85.0264 261.963 85.0264 264.003C85.0264 266.253 86.0764 267.123 88.6264 267.843C91.8064 268.743 93.7864 270.393 93.7864 273.813C93.7864 276.513 92.3164 279.603 88.1164 279.603C85.3864 279.603 83.4064 278.463 82.1464 276.213L84.1864 274.833C85.2964 276.423 86.2264 277.263 88.1164 277.263C90.6964 277.263 91.2364 275.523 91.2364 273.933C91.2364 272.133 90.6664 270.903 87.6064 270.063C84.5164 269.223 82.4464 267.453 82.4464 264.003C82.4464 261.123 84.0964 258.423 87.9064 258.423C90.5764 258.423 92.2564 259.533 93.4564 261.813ZM101.079 258.663H113.349V261.003H108.489V279.363H105.909V261.003H101.079V258.663ZM126.789 270.153C126.789 276.843 124.449 279.603 120.729 279.603C117.009 279.603 114.669 276.843 114.669 270.153V267.873C114.669 261.183 117.009 258.423 120.729 258.423C124.449 258.423 126.789 261.183 126.789 267.873V270.153ZM117.249 267.873V270.153C117.249 275.403 118.269 277.263 120.729 277.263C123.189 277.263 124.209 275.403 124.209 270.153V267.873C124.209 262.623 123.189 260.763 120.729 260.763C118.269 260.763 117.249 262.623 117.249 267.873Z" fill="white"/>
<path d="M207.818 295.023L221.718 267.884L206.465 255.948C206.465 255.948 190.817 241.652 195.616 224.702C200.415 207.753 209.363 201.154 225.439 200.902C241.515 200.65 254.804 213.534 254.804 213.534C254.804 213.534 253.747 198.218 259.919 196.796C266.091 195.373 270.179 193.436 284.119 205.321L288.522 196.16L299.727 196.705L326.815 216.227L318.08 235.82L331.228 245.345C331.228 245.345 335 247.877 335 251.237C335 254.596 334.502 264.292 334.136 265.17C333.77 266.047 329.977 274.139 318.884 270.446L306.021 261.437L301.262 270.588L290.301 270.315L282.37 264.574C282.37 264.574 279.94 271.526 278.252 275.38C276.564 279.234 259.187 315.363 259.187 315.363L235.912 315.292L207.808 295.034L207.818 295.023Z" stroke="#FDE9AA" stroke-miterlimit="10"/>
<path d="M226.12 258.178C223.273 259.389 221.514 259.793 218.26 259.793C205.927 259.793 195.087 248.099 195.087 231.825C195.087 209.236 209.313 200.902 225.439 200.902C241.566 200.902 255.933 209.236 255.933 231.825C255.933 239.493 253.493 248.362 247.534 261.003L231.133 295.024H207.818L226.11 258.178H226.12ZM225.439 219.456C219.074 219.456 217.579 224.158 217.579 230.615C217.579 237.072 219.074 241.773 225.439 241.773C231.804 241.773 233.431 237.072 233.431 230.615C233.431 224.158 231.804 219.456 225.439 219.456Z" fill="#FDE9AA"/>
<path d="M255.099 211.99V206.734C255.099 199.127 259.288 195.363 266.081 195.363C272.873 195.363 277.062 199.127 277.062 206.734V211.99C277.062 219.597 273.036 223.512 266.081 223.512C259.126 223.512 255.099 219.597 255.099 211.99ZM299.106 196.16L273.188 250.248H262.603L288.522 196.16H299.106ZM267.352 212.939V206.038C267.352 203.768 266.874 203.293 266.091 203.293C265.308 203.293 264.83 203.768 264.83 206.038V212.939C264.83 215.209 265.308 215.683 266.091 215.683C266.874 215.683 267.352 215.209 267.352 212.939ZM284.973 239.513V234.257C284.973 226.65 289.162 222.886 295.954 222.886C302.747 222.886 306.936 226.65 306.936 234.257V239.513C306.936 247.12 302.909 251.035 295.954 251.035C288.999 251.035 284.973 247.12 284.973 239.513ZM297.215 240.452V233.551C297.215 231.281 296.737 230.806 295.954 230.806C295.171 230.806 294.694 231.281 294.694 233.551V240.452C294.694 242.722 295.171 243.196 295.954 243.196C296.737 243.196 297.215 242.722 297.215 240.452Z" fill="#FDE9AA"/>
<defs>
<clipPath id="clip0_905_1435">
<rect width="198" height="121" fill="white" transform="translate(137 20.3633)"/>
</clipPath>
</defs>
</svg>
