<svg width="335" height="729" viewBox="0 0 335 729" fill="none" xmlns="http://www.w3.org/2000/svg">
<path d="M61.0676 42.9093L59.9456 47.3633H54.9816L61.7476 23.9033H66.3716L73.1376 47.3633H68.1736L67.0516 42.9093H61.0676ZM66.0996 38.8973L64.0596 30.6353L62.0196 38.8973H66.0996ZM88.768 31.1793H84.246C84.008 28.9693 83.294 27.6093 81.594 27.6093C79.486 27.6093 78.602 29.4793 78.602 33.9673V37.2993C78.602 41.6513 79.486 43.6573 81.594 43.6573C83.294 43.6573 84.144 42.3653 84.28 39.1693H81.662V35.1573H88.836V37.2653C88.836 44.0313 86.728 47.6693 81.594 47.6693C77.004 47.6693 73.842 44.4733 73.842 37.2993V33.9673C73.842 26.7253 77.004 23.5973 81.594 23.5973C85.436 23.5973 88.122 26.0453 88.768 31.1793ZM92.1845 23.9033H104.561V27.9153H96.9445V33.2193H103.711V37.2313H96.9445V43.3513H104.561V47.3633H92.1845V23.9033ZM113.645 41.1413C113.645 38.0473 115.209 35.9733 116.943 34.3413C115.855 32.6413 115.073 31.0093 115.073 28.9353C115.073 25.7053 117.453 23.5973 120.785 23.5973C124.321 23.5973 126.361 25.8413 126.361 28.2553C126.361 30.8733 124.355 32.8113 122.349 34.6133L125.477 39.5093C125.647 38.5913 125.715 37.5373 125.715 36.4153H130.067C130.067 38.8293 129.523 41.1413 128.537 43.0453L131.767 47.3633H126.667L125.749 45.9353C124.389 47.0233 122.689 47.6693 120.751 47.6693C116.263 47.6693 113.645 44.6433 113.645 41.1413ZM120.955 43.6573C121.805 43.6573 122.519 43.3513 123.097 42.8413L119.323 37.2313C118.643 38.1153 118.269 38.9653 118.269 40.5633C118.269 41.8553 118.983 43.6573 120.955 43.6573ZM119.493 28.9353C119.493 29.9553 119.833 30.9753 120.309 31.8593C121.465 30.7713 122.213 29.7853 122.213 28.5273C122.213 27.6433 121.703 26.8953 120.853 26.8953C120.037 26.8953 119.493 27.5413 119.493 28.9353ZM141.259 23.9033H153.635V27.9153H146.019V33.7633H152.785V37.7753H146.019V47.3633H141.259V23.9033ZM161.299 23.9033V47.3633H156.539V23.9033H161.299ZM163.829 23.9033H178.789V27.9493H173.689V47.3633H168.929V27.9493H163.829V23.9033ZM191.611 23.9033H196.371V47.3633H192.393L185.763 34.5453V47.3633H181.003V23.9033H184.947L191.611 36.9253V23.9033ZM200.36 23.9033H212.736V27.9153H205.12V33.2193H211.886V37.2313H205.12V43.3513H212.736V47.3633H200.36V23.9033ZM229.032 27.4053L225.598 29.8873C224.646 28.4933 223.626 27.6093 222.232 27.6093C220.6 27.6093 219.818 28.5953 219.818 30.1933C219.818 32.0293 220.838 32.7773 223.32 33.5933C227.536 34.9533 229.304 36.6873 229.304 40.8353C229.304 44.6773 226.856 47.6693 222.334 47.6693C218.832 47.6693 216.418 46.5473 214.582 43.8273L218.152 41.3113C219.24 42.6713 220.26 43.6573 221.994 43.6573C223.898 43.6573 224.544 42.4673 224.544 41.0393C224.544 39.4073 223.796 38.4893 220.838 37.5373C216.894 36.2453 215.058 34.0693 215.058 30.1933C215.058 26.4873 217.268 23.5973 222.028 23.5973C225.156 23.5973 227.672 24.8213 229.032 27.4053ZM245.833 27.4053L242.399 29.8873C241.447 28.4933 240.427 27.6093 239.033 27.6093C237.401 27.6093 236.619 28.5953 236.619 30.1933C236.619 32.0293 237.639 32.7773 240.121 33.5933C244.337 34.9533 246.105 36.6873 246.105 40.8353C246.105 44.6773 243.657 47.6693 239.135 47.6693C235.633 47.6693 233.219 46.5473 231.383 43.8273L234.953 41.3113C236.041 42.6713 237.061 43.6573 238.795 43.6573C240.699 43.6573 241.345 42.4673 241.345 41.0393C241.345 39.4073 240.597 38.4893 237.639 37.5373C233.695 36.2453 231.859 34.0693 231.859 30.1933C231.859 26.4873 234.069 23.5973 238.829 23.5973C241.957 23.5973 244.473 24.8213 245.833 27.4053ZM251.609 23.3619C253.525 23.3619 255.329 24.5337 255.329 26.8773C255.329 28.1607 254.715 29.1837 253.86 29.7045C254.697 30.1695 255.496 31.3413 255.496 32.7921C255.496 35.1915 253.729 36.5307 251.609 36.5307C249.489 36.5307 247.722 35.1915 247.722 32.7921C247.722 31.3413 248.521 30.1695 249.358 29.7045C248.503 29.1837 247.889 28.1607 247.889 26.8773C247.889 24.5337 249.693 23.3619 251.609 23.3619ZM251.609 34.3545C252.39 34.3545 252.892 33.5733 252.892 32.5503C252.892 31.3971 252.279 30.7647 251.609 30.7647C250.939 30.7647 250.326 31.3971 250.326 32.5503C250.326 33.5733 250.828 34.3545 251.609 34.3545ZM251.609 25.5567C250.902 25.5567 250.456 26.2635 250.456 27.1377C250.456 28.0305 250.902 28.7559 251.609 28.7559C252.316 28.7559 252.762 28.0305 252.762 27.1377C252.762 26.2635 252.316 25.5567 251.609 25.5567ZM260.082 33.4617V37.2189L257.553 39.3765V33.4617H260.082ZM267.695 23.5293V36.3633H265.091V26.4123L263.566 27.6213V24.9429L265.388 23.5293H267.695ZM277.135 23.5293V36.3633H274.531V26.4123L273.006 27.6213V24.9429L274.829 23.5293H277.135Z" fill="#FDE9AA"/>
<line x1="100.509" y1="71.3633" x2="234.491" y2="71.3633" stroke="#FF005A" stroke-width="2"/>
<path d="M207.442 213.316V219.812H206.595V213.316H207.442ZM209.472 213.316V219.812H208.625V213.316H209.472Z" fill="white"/>
<path d="M127.611 205H125.901L129.549 191.89H130.993L134.66 205H132.95L132.209 201.998H128.352L127.611 205ZM130.271 194.664L128.827 200.516H131.715L130.271 194.664ZM139.42 198.407H143.277V199.167C143.277 203.404 141.738 205.152 139.401 205.152C137.045 205.152 135.563 203.404 135.563 199.167V197.723C135.563 193.486 137.045 191.738 139.401 191.738C141.529 191.738 142.859 193.087 143.201 195.975H141.662C141.32 194.018 140.674 193.22 139.401 193.22C137.862 193.22 137.197 194.398 137.197 197.723V199.167C137.197 202.492 137.862 203.67 139.401 203.67C140.769 203.67 141.586 202.644 141.643 199.889H139.42V198.407ZM145.335 191.89H151.738V193.372H146.969V197.476H151.282V198.958H146.969V203.518H151.738V205H145.335V191.89ZM158.003 205H156.293L159.941 191.89H161.385L165.052 205H163.342L162.601 201.998H158.744L158.003 205ZM160.663 194.664L159.219 200.516H162.107L160.663 194.664ZM172.055 191.89H173.689V205H172.169L168.122 195.918V205H166.488V191.89H167.951L172.055 201.067V191.89ZM179.686 205H176.266V191.89H179.686C182.004 191.89 183.486 193.524 183.486 197.761V199.129C183.486 203.366 182.004 205 179.686 205ZM179.686 203.518C181.206 203.518 181.852 202.378 181.852 199.129V197.761C181.852 194.512 181.187 193.372 179.686 193.372H177.9V203.518H179.686ZM105.053 215.89H111.456V217.372H106.687V221.476H111V222.958H106.687V227.518H111.456V229H105.053V215.89ZM120.453 219.975H118.914C118.534 217.923 117.869 217.22 116.653 217.22C115.133 217.22 114.449 218.398 114.449 221.723V223.167C114.449 226.473 115.114 227.67 116.653 227.67C117.945 227.67 118.553 226.834 118.914 224.915H120.434C120.111 227.86 118.743 229.152 116.653 229.152C114.297 229.152 112.815 227.404 112.815 223.167V221.723C112.815 217.486 114.297 215.738 116.653 215.738C118.819 215.738 120.111 217.106 120.453 219.975ZM129.342 223.167C129.342 227.404 127.86 229.152 125.504 229.152C123.148 229.152 121.666 227.404 121.666 223.167V221.723C121.666 217.486 123.148 215.738 125.504 215.738C127.86 215.738 129.342 217.486 129.342 221.723V223.167ZM123.3 221.723V223.167C123.3 226.492 123.946 227.67 125.504 227.67C127.062 227.67 127.708 226.492 127.708 223.167V221.723C127.708 218.398 127.062 217.22 125.504 217.22C123.946 217.22 123.3 218.398 123.3 221.723ZM134.726 222.407H138.583V223.167C138.583 227.404 137.044 229.152 134.707 229.152C132.351 229.152 130.869 227.404 130.869 223.167V221.723C130.869 217.486 132.351 215.738 134.707 215.738C136.835 215.738 138.165 217.087 138.507 219.975H136.968C136.626 218.018 135.98 217.22 134.707 217.22C133.168 217.22 132.503 218.398 132.503 221.723V223.167C132.503 226.492 133.168 227.67 134.707 227.67C136.075 227.67 136.892 226.644 136.949 223.889H134.726V222.407ZM150.069 227.518V229H143.837V227.632L147.333 222.293C148.074 221.153 148.473 220.241 148.473 219.177C148.473 217.885 147.941 217.201 147.048 217.201C146.193 217.201 145.604 217.904 145.566 219.253H144.008C144.008 217.087 145.395 215.738 147.067 215.738C148.853 215.738 150.107 217.087 150.107 219.177C150.107 220.887 149.271 222.16 148.644 223.148L145.87 227.518H150.069ZM162.504 217.885L161.269 218.721C160.756 217.847 160.205 217.22 158.951 217.22C157.83 217.22 157.165 217.98 157.165 219.272C157.165 220.697 157.83 221.248 159.445 221.704C161.459 222.274 162.713 223.319 162.713 225.485C162.713 227.195 161.782 229.152 159.122 229.152C157.393 229.152 156.139 228.43 155.341 227.005L156.633 226.131C157.336 227.138 157.925 227.67 159.122 227.67C160.756 227.67 161.098 226.568 161.098 225.561C161.098 224.421 160.737 223.642 158.799 223.11C156.842 222.578 155.531 221.457 155.531 219.272C155.531 217.448 156.576 215.738 158.989 215.738C160.68 215.738 161.744 216.441 162.504 217.885ZM163.286 215.89H171.057V217.372H167.979V229H166.345V217.372H163.286V215.89ZM172.531 229H170.821L174.469 215.89H175.913L179.58 229H177.87L177.129 225.998H173.272L172.531 229ZM175.191 218.664L173.747 224.516H176.635L175.191 218.664ZM179.336 215.89H187.107V217.372H184.029V229H182.395V217.372H179.336V215.89ZM194.517 215.89H196.151V223.661C196.151 227.537 194.65 229.152 192.313 229.152C189.957 229.152 188.475 227.537 188.475 223.68V215.89H190.109V223.68C190.109 226.625 190.812 227.67 192.313 227.67C193.814 227.67 194.517 226.625 194.517 223.68V215.89ZM205.291 217.885L204.056 218.721C203.543 217.847 202.992 217.22 201.738 217.22C200.617 217.22 199.952 217.98 199.952 219.272C199.952 220.697 200.617 221.248 202.232 221.704C204.246 222.274 205.5 223.319 205.5 225.485C205.5 227.195 204.569 229.152 201.909 229.152C200.18 229.152 198.926 228.43 198.128 227.005L199.42 226.131C200.123 227.138 200.712 227.67 201.909 227.67C203.543 227.67 203.885 226.568 203.885 225.561C203.885 224.421 203.524 223.642 201.586 223.11C199.629 222.578 198.318 221.457 198.318 219.272C198.318 217.448 199.363 215.738 201.776 215.738C203.467 215.738 204.531 216.441 205.291 217.885Z" fill="white"/>
<path d="M177.636 100.707C177.636 96.1 173.686 92.3633 168.792 92.3633C163.897 92.3633 159.947 96.1 159.947 100.707C159.947 105.314 163.897 109.051 168.792 109.051C173.686 109.051 177.636 105.314 177.636 100.707Z" fill="#FFEFAE"/>
<path d="M189.959 136.206L179.676 131.598C177.593 130.664 176.048 128.923 175.447 126.843C174.073 122.129 171.239 113.828 167.74 112.596C162.566 110.77 156.706 112.851 152.477 116.206C149.214 118.796 145.5 121.747 143.181 123.594C141.743 124.741 140.798 126.375 140.562 128.138C139.983 132.554 138.931 140.473 138.737 141.874C138.48 143.849 139.94 145.632 142.022 145.866C144.104 146.12 145.993 144.719 146.251 142.766L147.646 132.214C147.883 130.452 148.827 128.817 150.265 127.671L155.632 123.424C152.09 139.157 152.842 135.823 151.875 140.112C152.412 140.898 176.048 176.163 176.563 176.948C178.109 179.241 181.307 179.921 183.733 178.477C186.159 177.033 186.889 173.997 185.343 171.704L165.722 142.447L168.513 130.048L169.908 132.893C170.681 134.486 172.033 135.76 173.686 136.503L186.867 142.405C188.67 143.212 190.817 142.49 191.676 140.791C192.535 139.093 191.762 137.055 189.959 136.248" fill="#FFEFAE"/>
<path d="M147.345 158.69C147.259 159.009 147.109 159.285 146.894 159.539L136.912 172.278C135.388 174.231 135.817 176.97 137.878 178.414C139.939 179.858 142.837 179.454 144.361 177.501C145.52 176.036 153.463 165.887 155.331 163.51C155.524 163.255 155.674 162.958 155.782 162.66C156.233 161.132 157.413 156.992 157.628 156.333L150.608 147.438L147.345 158.711V158.69Z" fill="white"/>
<path d="M167.854 251.557V283.319" stroke="#FF005A" stroke-width="7"/>
<path d="M150.895 267.098H184.105" stroke="#FF005A" stroke-width="7"/>
<path d="M93.7935 425.975H92.2545C91.8745 423.923 91.2095 423.22 89.9935 423.22C88.4735 423.22 87.7895 424.398 87.7895 427.723V429.167C87.7895 432.473 88.4545 433.67 89.9935 433.67C91.2855 433.67 91.8935 432.834 92.2545 430.915H93.7745C93.4515 433.86 92.0835 435.152 89.9935 435.152C87.6375 435.152 86.1555 433.404 86.1555 429.167V427.723C86.1555 423.486 87.6375 421.738 89.9935 421.738C92.1595 421.738 93.4515 423.106 93.7935 425.975ZM101.58 421.89H103.214V429.661C103.214 433.537 101.713 435.152 99.3761 435.152C97.0201 435.152 95.5381 433.537 95.5381 429.68V421.89H97.1721V429.68C97.1721 432.625 97.8751 433.67 99.3761 433.67C100.877 433.67 101.58 432.625 101.58 429.68V421.89ZM107.433 421.89L110.34 429.813L113.228 421.89H114.881V435H113.247V426.203L110.986 432.264H109.637L107.433 426.203V435H105.799V421.89H107.433ZM123.512 421.89H125.146V429.661C125.146 433.537 123.645 435.152 121.308 435.152C118.952 435.152 117.47 433.537 117.47 429.68V421.89H119.104V429.68C119.104 432.625 119.807 433.67 121.308 433.67C122.809 433.67 123.512 432.625 123.512 429.68V421.89ZM129.364 421.89V433.518H134.133V435H127.73V421.89H129.364ZM136.149 435H134.439L138.087 421.89H139.531L143.198 435H141.488L140.747 431.998H136.89L136.149 435ZM138.809 424.664L137.365 430.516H140.253L138.809 424.664ZM142.954 421.89H150.725V423.372H147.647V435H146.013V423.372H142.954V421.89ZM153.879 421.89V435H152.245V421.89H153.879ZM155.48 421.89H157.209L159.983 432.15L162.757 421.89H164.486L160.705 435H159.28L155.48 421.89ZM165.935 421.89H172.338V423.372H167.569V427.476H171.882V428.958H167.569V433.518H172.338V435H165.935V421.89ZM176.816 421.89H184.587V423.372H181.509V435H179.875V423.372H176.816V421.89ZM193.099 429.167C193.099 433.404 191.617 435.152 189.261 435.152C186.905 435.152 185.423 433.404 185.423 429.167V427.723C185.423 423.486 186.905 421.738 189.261 421.738C191.617 421.738 193.099 423.486 193.099 427.723V429.167ZM187.057 427.723V429.167C187.057 432.492 187.703 433.67 189.261 433.67C190.819 433.67 191.465 432.492 191.465 429.167V427.723C191.465 424.398 190.819 423.22 189.261 423.22C187.703 423.22 187.057 424.398 187.057 427.723ZM195.733 435H193.966L196.968 428.236L194.308 421.89H196.075L197.899 426.697L199.742 421.89H201.509L198.83 428.236L201.851 435H200.084L197.899 429.908L195.733 435ZM205.238 421.89V435H203.604V421.89H205.238ZM215.086 425.975H213.547C213.167 423.923 212.502 423.22 211.286 423.22C209.766 423.22 209.082 424.398 209.082 427.723V429.167C209.082 432.473 209.747 433.67 211.286 433.67C212.578 433.67 213.186 432.834 213.547 430.915H215.067C214.744 433.86 213.376 435.152 211.286 435.152C208.93 435.152 207.448 433.404 207.448 429.167V427.723C207.448 423.486 208.93 421.738 211.286 421.738C213.452 421.738 214.744 423.106 215.086 425.975ZM218.616 421.89V435H216.982V421.89H218.616ZM220.141 421.89H227.912V423.372H224.834V435H223.2V423.372H220.141V421.89ZM231.066 421.89V435H229.432V421.89H231.066ZM233.808 421.89H240.211V423.372H235.442V427.476H239.755V428.958H235.442V433.518H240.211V435H233.808V421.89ZM248.657 423.885L247.422 424.721C246.909 423.847 246.358 423.22 245.104 423.22C243.983 423.22 243.318 423.98 243.318 425.272C243.318 426.697 243.983 427.248 245.598 427.704C247.612 428.274 248.866 429.319 248.866 431.485C248.866 433.195 247.935 435.152 245.275 435.152C243.546 435.152 242.292 434.43 241.494 433.005L242.786 432.131C243.489 433.138 244.078 433.67 245.275 433.67C246.909 433.67 247.251 432.568 247.251 431.561C247.251 430.421 246.89 429.642 244.952 429.11C242.995 428.578 241.684 427.457 241.684 425.272C241.684 423.448 242.729 421.738 245.142 421.738C246.833 421.738 247.897 422.441 248.657 423.885ZM101.939 445.89H108.342V447.372H103.573V451.78H107.886V453.262H103.573V459H101.939V445.89ZM117.59 459H115.861L113.752 453.471H111.719V459H110.085V445.89H113.467C115.899 445.89 117.324 447.144 117.324 449.69C117.324 451.533 116.602 452.692 115.291 453.186L117.59 459ZM111.719 451.989H113.467C115.139 451.989 115.69 451.305 115.69 449.69C115.69 448.056 115.139 447.372 113.467 447.372H111.719V451.989ZM126.488 453.167C126.488 457.404 125.006 459.152 122.65 459.152C120.294 459.152 118.812 457.404 118.812 453.167V451.723C118.812 447.486 120.294 445.738 122.65 445.738C125.006 445.738 126.488 447.486 126.488 451.723V453.167ZM120.446 451.723V453.167C120.446 456.492 121.092 457.67 122.65 457.67C124.208 457.67 124.854 456.492 124.854 453.167V451.723C124.854 448.398 124.208 447.22 122.65 447.22C121.092 447.22 120.446 448.398 120.446 451.723ZM130.181 445.89L133.088 453.813L135.976 445.89H137.629V459H135.995V450.203L133.734 456.264H132.385L130.181 450.203V459H128.547V445.89H130.181ZM144.021 445.89H147.27C149.74 445.89 150.956 447.049 150.956 449.234C150.956 450.602 150.234 451.856 149.227 452.16C150.538 452.464 151.298 453.566 151.298 455.238C151.298 457.138 150.329 459 147.593 459H144.021V445.89ZM145.655 452.939V457.518H147.593C149.075 457.518 149.664 456.663 149.664 455.238C149.664 453.661 148.98 452.939 147.365 452.939H145.655ZM145.655 447.353V451.457H147.479C148.847 451.457 149.322 450.526 149.322 449.234C149.322 448.075 148.98 447.353 147.27 447.353H145.655ZM154.992 445.89V459H153.358V445.89H154.992ZM164.877 453.167C164.877 457.404 163.395 459.152 161.039 459.152C158.683 459.152 157.201 457.404 157.201 453.167V451.723C157.201 447.486 158.683 445.738 161.039 445.738C163.395 445.738 164.877 447.486 164.877 451.723V453.167ZM158.835 451.723V453.167C158.835 456.492 159.481 457.67 161.039 457.67C162.597 457.67 163.243 456.492 163.243 453.167V451.723C163.243 448.398 162.597 447.22 161.039 447.22C159.481 447.22 158.835 448.398 158.835 451.723ZM174.043 449.975H172.504C172.124 447.923 171.459 447.22 170.243 447.22C168.723 447.22 168.039 448.398 168.039 451.723V453.167C168.039 456.473 168.704 457.67 170.243 457.67C171.535 457.67 172.143 456.834 172.504 454.915H174.024C173.701 457.86 172.333 459.152 170.243 459.152C167.887 459.152 166.405 457.404 166.405 453.167V451.723C166.405 447.486 167.887 445.738 170.243 445.738C172.409 445.738 173.701 447.106 174.043 449.975ZM177.421 445.89V451.476H181.335V445.89H182.969V459H181.335V452.958H177.421V459H175.787V445.89H177.421ZM185.547 445.89H191.95V447.372H187.181V451.476H191.494V452.958H187.181V457.518H191.95V459H185.547V445.89ZM195.475 445.89L198.382 453.813L201.27 445.89H202.923V459H201.289V450.203L199.028 456.264H197.679L195.475 450.203V459H193.841V445.89H195.475ZM207.298 445.89V459H205.664V445.89H207.298ZM217.145 449.975H215.606C215.226 447.923 214.561 447.22 213.345 447.22C211.825 447.22 211.141 448.398 211.141 451.723V453.167C211.141 456.473 211.806 457.67 213.345 457.67C214.637 457.67 215.245 456.834 215.606 454.915H217.126C216.803 457.86 215.435 459.152 213.345 459.152C210.989 459.152 209.507 457.404 209.507 453.167V451.723C209.507 447.486 210.989 445.738 213.345 445.738C215.511 445.738 216.803 447.106 217.145 449.975ZM219.46 459H217.75L221.398 445.89H222.842L226.509 459H224.799L224.058 455.998H220.201L219.46 459ZM222.12 448.664L220.676 454.516H223.564L222.12 448.664ZM229.578 445.89V457.518H234.347V459H227.944V445.89H229.578ZM100.34 471.885L99.1047 472.721C98.5917 471.847 98.0407 471.22 96.7867 471.22C95.6657 471.22 95.0007 471.98 95.0007 473.272C95.0007 474.697 95.6657 475.248 97.2807 475.704C99.2947 476.274 100.549 477.319 100.549 479.485C100.549 481.195 99.6177 483.152 96.9577 483.152C95.2287 483.152 93.9747 482.43 93.1767 481.005L94.4687 480.131C95.1717 481.138 95.7607 481.67 96.9577 481.67C98.5917 481.67 98.9337 480.568 98.9337 479.561C98.9337 478.421 98.5727 477.642 96.6347 477.11C94.6777 476.578 93.3667 475.457 93.3667 473.272C93.3667 471.448 94.4117 469.738 96.8247 469.738C98.5157 469.738 99.5797 470.441 100.34 471.885ZM101.239 469.89H103.101L105.191 475.4L107.3 469.89H109.162L106.008 477.376V483H104.374V477.376L101.239 469.89ZM117.076 471.885L115.841 472.721C115.328 471.847 114.777 471.22 113.523 471.22C112.402 471.22 111.737 471.98 111.737 473.272C111.737 474.697 112.402 475.248 114.017 475.704C116.031 476.274 117.285 477.319 117.285 479.485C117.285 481.195 116.354 483.152 113.694 483.152C111.965 483.152 110.711 482.43 109.913 481.005L111.205 480.131C111.908 481.138 112.497 481.67 113.694 481.67C115.328 481.67 115.67 480.568 115.67 479.561C115.67 478.421 115.309 477.642 113.371 477.11C111.414 476.578 110.103 475.457 110.103 473.272C110.103 471.448 111.148 469.738 113.561 469.738C115.252 469.738 116.316 470.441 117.076 471.885ZM117.859 469.89H125.63V471.372H122.552V483H120.918V471.372H117.859V469.89ZM126.998 469.89H133.401V471.372H128.632V475.476H132.945V476.958H128.632V481.518H133.401V483H126.998V469.89ZM136.926 469.89L139.833 477.813L142.721 469.89H144.374V483H142.74V474.203L140.479 480.264H139.13L136.926 474.203V483H135.292V469.89H136.926ZM148.748 469.89V483H147.114V469.89H148.748ZM158.596 473.975H157.057C156.677 471.923 156.012 471.22 154.796 471.22C153.276 471.22 152.592 472.398 152.592 475.723V477.167C152.592 480.473 153.257 481.67 154.796 481.67C156.088 481.67 156.696 480.834 157.057 478.915H158.577C158.254 481.86 156.886 483.152 154.796 483.152C152.44 483.152 150.958 481.404 150.958 477.167V475.723C150.958 471.486 152.44 469.738 154.796 469.738C156.962 469.738 158.254 471.106 158.596 473.975ZM162.928 469.89H170.699V471.372H167.621V483H165.987V471.372H162.928V469.89ZM179.572 483H177.843L175.734 477.471H173.701V483H172.067V469.89H175.449C177.881 469.89 179.306 471.144 179.306 473.69C179.306 475.533 178.584 476.692 177.273 477.186L179.572 483ZM173.701 475.989H175.449C177.121 475.989 177.672 475.305 177.672 473.69C177.672 472.056 177.121 471.372 175.449 471.372H173.701V475.989ZM181.326 469.89H187.729V471.372H182.96V475.476H187.273V476.958H182.96V481.518H187.729V483H181.326V469.89ZM190.19 483H188.48L192.128 469.89H193.572L197.239 483H195.529L194.788 479.998H190.931L190.19 483ZM192.85 472.664L191.406 478.516H194.294L192.85 472.664ZM196.994 469.89H204.765V471.372H201.687V483H200.053V471.372H196.994V469.89ZM207.767 469.89L210.674 477.813L213.562 469.89H215.215V483H213.581V474.203L211.32 480.264H209.971L207.767 474.203V483H206.133V469.89H207.767ZM217.804 469.89H224.207V471.372H219.438V475.476H223.751V476.958H219.438V481.518H224.207V483H217.804V469.89ZM231.665 469.89H233.299V483H231.779L227.732 473.918V483H226.098V469.89H227.561L231.665 479.067V469.89ZM234.66 469.89H242.431V471.372H239.353V483H237.719V471.372H234.66V469.89Z" fill="white"/>
<path d="M171.557 336.247H162.219V346.12L164.001 369.984H169.775L171.557 346.226V336.247ZM170.119 382.722H163.657V376.247H170.119V382.722Z" fill="white"/>
<path d="M163.85 317.054L123.127 386.969C121.774 389.283 123.47 392.191 126.175 392.191H207.622C210.327 392.191 212.023 389.283 210.67 386.969L169.947 317.054C168.594 314.74 165.203 314.74 163.85 317.054Z" stroke="#FFEFAE" stroke-width="4" stroke-miterlimit="10"/>
<path d="M155.188 514.382H179.812" stroke="#FF005A" stroke-width="7"/>
<path d="M155.188 526.06H179.812" stroke="#FF005A" stroke-width="7"/>
<path d="M113.395 679.003H111.609V684H109.975V670.89H113.395C115.808 670.89 117.214 672.41 117.214 674.956C117.214 677.483 115.827 679.003 113.395 679.003ZM111.609 677.521H113.395C115.048 677.521 115.58 676.571 115.58 674.956C115.58 673.322 115.048 672.372 113.395 672.372H111.609V677.521ZM126.118 678.167C126.118 682.404 124.636 684.152 122.28 684.152C119.924 684.152 118.442 682.404 118.442 678.167V676.723C118.442 672.486 119.924 670.738 122.28 670.738C124.636 670.738 126.118 672.486 126.118 676.723V678.167ZM120.076 676.723V678.167C120.076 681.492 120.722 682.67 122.28 682.67C123.838 682.67 124.484 681.492 124.484 678.167V676.723C124.484 673.398 123.838 672.22 122.28 672.22C120.722 672.22 120.076 673.398 120.076 676.723ZM135.321 678.167C135.321 682.404 133.839 684.152 131.483 684.152C129.127 684.152 127.645 682.404 127.645 678.167V676.723C127.645 672.486 129.127 670.738 131.483 670.738C133.839 670.738 135.321 672.486 135.321 676.723V678.167ZM129.279 676.723V678.167C129.279 681.492 129.925 682.67 131.483 682.67C133.041 682.67 133.687 681.492 133.687 678.167V676.723C133.687 673.398 133.041 672.22 131.483 672.22C129.925 672.22 129.279 673.398 129.279 676.723ZM144.885 684H143.156L141.047 678.471H139.014V684H137.38V670.89H140.762C143.194 670.89 144.619 672.144 144.619 674.69C144.619 676.533 143.897 677.692 142.586 678.186L144.885 684ZM139.014 676.989H140.762C142.434 676.989 142.985 676.305 142.985 674.69C142.985 673.056 142.434 672.372 140.762 672.372H139.014V676.989ZM146.639 670.89H153.042V672.372H148.273V676.476H152.586V677.958H148.273V682.518H153.042V684H146.639V670.89ZM162.438 684H160.709L158.6 678.471H156.567V684H154.933V670.89H158.315C160.747 670.89 162.172 672.144 162.172 674.69C162.172 676.533 161.45 677.692 160.139 678.186L162.438 684ZM156.567 676.989H158.315C159.987 676.989 160.538 676.305 160.538 674.69C160.538 673.056 159.987 672.372 158.315 672.372H156.567V676.989ZM174.551 672.885L173.316 673.721C172.803 672.847 172.252 672.22 170.998 672.22C169.877 672.22 169.212 672.98 169.212 674.272C169.212 675.697 169.877 676.248 171.492 676.704C173.506 677.274 174.76 678.319 174.76 680.485C174.76 682.195 173.829 684.152 171.169 684.152C169.44 684.152 168.186 683.43 167.388 682.005L168.68 681.131C169.383 682.138 169.972 682.67 171.169 682.67C172.803 682.67 173.145 681.568 173.145 680.561C173.145 679.421 172.784 678.642 170.846 678.11C168.889 677.578 167.578 676.457 167.578 674.272C167.578 672.448 168.623 670.738 171.036 670.738C172.727 670.738 173.791 671.441 174.551 672.885ZM182.833 670.89H184.467V678.661C184.467 682.537 182.966 684.152 180.629 684.152C178.273 684.152 176.791 682.537 176.791 678.68V670.89H178.425V678.68C178.425 681.625 179.128 682.67 180.629 682.67C182.13 682.67 182.833 681.625 182.833 678.68V670.89ZM194.556 684H192.827L190.718 678.471H188.685V684H187.051V670.89H190.433C192.865 670.89 194.29 672.144 194.29 674.69C194.29 676.533 193.568 677.692 192.257 678.186L194.556 684ZM188.685 676.989H190.433C192.105 676.989 192.656 676.305 192.656 674.69C192.656 673.056 192.105 672.372 190.433 672.372H188.685V676.989ZM195.022 670.89H196.751L199.525 681.15L202.299 670.89H204.028L200.247 684H198.822L195.022 670.89ZM207.262 670.89V684H205.628V670.89H207.262ZM208.863 670.89H210.592L213.366 681.15L216.14 670.89H217.869L214.088 684H212.663L208.863 670.89ZM219.424 684H217.714L221.362 670.89H222.806L226.473 684H224.763L224.022 680.998H220.165L219.424 684ZM222.084 673.664L220.64 679.516H223.528L222.084 673.664ZM229.543 670.89V682.518H234.312V684H227.909V670.89H229.543ZM142.836 702.167C142.836 706.404 141.354 708.152 138.998 708.152C136.642 708.152 135.16 706.404 135.16 702.167V700.723C135.16 696.486 136.642 694.738 138.998 694.738C141.354 694.738 142.836 696.486 142.836 700.723V702.167ZM136.794 700.723V702.167C136.794 705.492 137.44 706.67 138.998 706.67C140.556 706.67 141.202 705.492 141.202 702.167V700.723C141.202 697.398 140.556 696.22 138.998 696.22C137.44 696.22 136.794 697.398 136.794 700.723ZM150.937 694.89H152.571V702.661C152.571 706.537 151.07 708.152 148.733 708.152C146.377 708.152 144.895 706.537 144.895 702.68V694.89H146.529V702.68C146.529 705.625 147.232 706.67 148.733 706.67C150.234 706.67 150.937 705.625 150.937 702.68V694.89ZM153.94 694.89H161.711V696.372H158.633V708H156.999V696.372H153.94V694.89ZM170.185 698.975H168.646C168.266 696.923 167.601 696.22 166.385 696.22C164.865 696.22 164.181 697.398 164.181 700.723V702.167C164.181 705.473 164.846 706.67 166.385 706.67C167.677 706.67 168.285 705.834 168.646 703.915H170.166C169.843 706.86 168.475 708.152 166.385 708.152C164.029 708.152 162.547 706.404 162.547 702.167V700.723C162.547 696.486 164.029 694.738 166.385 694.738C168.551 694.738 169.843 696.106 170.185 698.975ZM179.073 702.167C179.073 706.404 177.591 708.152 175.235 708.152C172.879 708.152 171.397 706.404 171.397 702.167V700.723C171.397 696.486 172.879 694.738 175.235 694.738C177.591 694.738 179.073 696.486 179.073 700.723V702.167ZM173.031 700.723V702.167C173.031 705.492 173.677 706.67 175.235 706.67C176.793 706.67 177.439 705.492 177.439 702.167V700.723C177.439 697.398 176.793 696.22 175.235 696.22C173.677 696.22 173.031 697.398 173.031 700.723ZM182.766 694.89L185.673 702.813L188.561 694.89H190.214V708H188.58V699.203L186.319 705.264H184.97L182.766 699.203V708H181.132V694.89H182.766ZM192.803 694.89H199.206V696.372H194.437V700.476H198.75V701.958H194.437V706.518H199.206V708H192.803V694.89ZM207.652 696.885L206.417 697.721C205.904 696.847 205.353 696.22 204.099 696.22C202.978 696.22 202.313 696.98 202.313 698.272C202.313 699.697 202.978 700.248 204.593 700.704C206.607 701.274 207.861 702.319 207.861 704.485C207.861 706.195 206.93 708.152 204.27 708.152C202.541 708.152 201.287 707.43 200.489 706.005L201.781 705.131C202.484 706.138 203.073 706.67 204.27 706.67C205.904 706.67 206.246 705.568 206.246 704.561C206.246 703.421 205.885 702.642 203.947 702.11C201.99 701.578 200.679 700.457 200.679 698.272C200.679 696.448 201.724 694.738 204.137 694.738C205.828 694.738 206.892 695.441 207.652 696.885Z" fill="white"/>
<path d="M213.665 640.607H254.217C253.423 619.397 244.814 600.14 231.183 585.575L202.502 613.94C208.857 621.201 212.935 630.458 213.644 640.628L213.665 640.607ZM197.865 609.312L226.524 580.968C211.776 567.423 192.262 558.866 170.795 558.06V598.165C181.121 598.887 190.502 602.964 197.865 609.312ZM164.205 598.165V558.06C142.759 558.866 123.266 567.38 108.518 580.904L137.199 609.248C144.54 602.942 153.922 598.887 164.205 598.165Z" stroke="#FFEFAE" stroke-width="2" stroke-miterlimit="10"/>
<path d="M132.541 613.877L103.882 585.512C90.2071 600.098 81.5773 619.376 80.783 640.607H121.335C122.043 630.416 126.143 621.138 132.541 613.877Z" fill="#FDE9AA" stroke="#FFEFAE" stroke-miterlimit="10"/>
<path d="M99.392 617.559C98.6271 617.369 97.8455 617.803 97.6029 618.553C97.3602 619.303 97.7394 620.113 98.4707 620.406L164.611 646.988C164.647 647.002 164.684 647.015 164.721 647.027L165.171 645.596C164.721 647.027 164.721 647.027 164.722 647.028L164.724 647.028L164.728 647.029L164.736 647.032L164.758 647.038C164.775 647.043 164.797 647.05 164.822 647.056C164.872 647.07 164.939 647.088 165.02 647.106C165.183 647.144 165.406 647.187 165.675 647.221C166.208 647.286 166.956 647.315 167.783 647.149C169.543 646.795 171.435 645.589 172.372 642.705L172.374 642.699C172.821 641.304 172.869 640.06 172.609 638.972C172.351 637.887 171.809 637.052 171.223 636.434C170.643 635.824 170.014 635.42 169.541 635.169C169.301 635.042 169.093 634.95 168.939 634.888C168.862 634.856 168.797 634.832 168.748 634.815C168.723 634.806 168.702 634.799 168.686 634.793L168.664 634.786L168.655 634.783L168.651 634.782L168.65 634.782C168.649 634.781 168.648 634.781 168.198 636.212L168.648 634.781C168.619 634.772 168.589 634.764 168.56 634.756L99.392 617.559Z" fill="white" stroke="black" stroke-width="3" stroke-linejoin="round"/>
</svg>
