<svg width="936" height="183" viewBox="0 0 936 183" fill="none" xmlns="http://www.w3.org/2000/svg">
<path d="M6.456 96.939L5.433 101H0.907L7.076 79.61H11.292L17.461 101H12.935L11.912 96.939H6.456ZM11.044 93.281L9.184 85.748L7.324 93.281H11.044ZM31.7123 86.244H27.5893C27.3723 84.229 26.7213 82.989 25.1713 82.989C23.2493 82.989 22.4433 84.694 22.4433 88.786V91.824C22.4433 95.792 23.2493 97.621 25.1713 97.621C26.7213 97.621 27.4963 96.443 27.6203 93.529H25.2333V89.871H31.7743V91.793C31.7743 97.962 29.8523 101.279 25.1713 101.279C20.9863 101.279 18.1033 98.365 18.1033 91.824V88.786C18.1033 82.183 20.9863 79.331 25.1713 79.331C28.6743 79.331 31.1233 81.563 31.7123 86.244ZM34.8273 79.61H46.1113V83.268H39.1673V88.104H45.3363V91.762H39.1673V97.342H46.1113V101H34.8273V79.61ZM54.3939 95.327C54.3939 92.506 55.8199 90.615 57.4009 89.127C56.4089 87.577 55.6959 86.089 55.6959 84.198C55.6959 81.253 57.8659 79.331 60.9039 79.331C64.1279 79.331 65.9879 81.377 65.9879 83.578C65.9879 85.965 64.1589 87.732 62.3299 89.375L65.1819 93.839C65.3369 93.002 65.3989 92.041 65.3989 91.018H69.3669C69.3669 93.219 68.8709 95.327 67.9719 97.063L70.9169 101H66.2669L65.4299 99.698C64.1899 100.69 62.6399 101.279 60.8729 101.279C56.7809 101.279 54.3939 98.52 54.3939 95.327ZM61.0589 97.621C61.8339 97.621 62.4849 97.342 63.0119 96.877L59.5709 91.762C58.9509 92.568 58.6099 93.343 58.6099 94.8C58.6099 95.978 59.2609 97.621 61.0589 97.621ZM59.7259 84.198C59.7259 85.128 60.0359 86.058 60.4699 86.864C61.5239 85.872 62.2059 84.973 62.2059 83.826C62.2059 83.02 61.7409 82.338 60.9659 82.338C60.2219 82.338 59.7259 82.927 59.7259 84.198ZM79.5714 79.61H90.8554V83.268H83.9114V88.6H90.0804V92.258H83.9114V101H79.5714V79.61ZM97.843 79.61V101H93.503V79.61H97.843ZM100.151 79.61H113.791V83.299H109.141V101H104.801V83.299H100.151V79.61ZM125.481 79.61H129.821V101H126.194L120.149 89.313V101H115.809V79.61H119.405L125.481 91.483V79.61ZM133.458 79.61H144.742V83.268H137.798V88.104H143.967V91.762H137.798V97.342H144.742V101H133.458V79.61ZM159.6 82.803L156.469 85.066C155.601 83.795 154.671 82.989 153.4 82.989C151.912 82.989 151.199 83.888 151.199 85.345C151.199 87.019 152.129 87.701 154.392 88.445C158.236 89.685 159.848 91.266 159.848 95.048C159.848 98.551 157.616 101.279 153.493 101.279C150.3 101.279 148.099 100.256 146.425 97.776L149.68 95.482C150.672 96.722 151.602 97.621 153.183 97.621C154.919 97.621 155.508 96.536 155.508 95.234C155.508 93.746 154.826 92.909 152.129 92.041C148.533 90.863 146.859 88.879 146.859 85.345C146.859 81.966 148.874 79.331 153.214 79.331C156.066 79.331 158.36 80.447 159.6 82.803ZM174.918 82.803L171.787 85.066C170.919 83.795 169.989 82.989 168.718 82.989C167.23 82.989 166.517 83.888 166.517 85.345C166.517 87.019 167.447 87.701 169.71 88.445C173.554 89.685 175.166 91.266 175.166 95.048C175.166 98.551 172.934 101.279 168.811 101.279C165.618 101.279 163.417 100.256 161.743 97.776L164.998 95.482C165.99 96.722 166.92 97.621 168.501 97.621C170.237 97.621 170.826 96.536 170.826 95.234C170.826 93.746 170.144 92.909 167.447 92.041C163.851 90.863 162.177 88.879 162.177 85.345C162.177 81.966 164.192 79.331 168.532 79.331C171.384 79.331 173.678 80.447 174.918 82.803ZM180.147 79.2568C181.877 79.2568 183.507 80.3152 183.507 82.432C183.507 83.5912 182.953 84.5152 182.18 84.9856C182.936 85.4056 183.658 86.464 183.658 87.7744C183.658 89.9416 182.062 91.1512 180.147 91.1512C178.232 91.1512 176.636 89.9416 176.636 87.7744C176.636 86.464 177.358 85.4056 178.114 84.9856C177.341 84.5152 176.787 83.5912 176.787 82.432C176.787 80.3152 178.417 79.2568 180.147 79.2568ZM180.147 89.1856C180.853 89.1856 181.306 88.48 181.306 87.556C181.306 86.5144 180.752 85.9432 180.147 85.9432C179.542 85.9432 178.988 86.5144 178.988 87.556C178.988 88.48 179.441 89.1856 180.147 89.1856ZM180.147 81.2392C179.509 81.2392 179.105 81.8776 179.105 82.6672C179.105 83.4736 179.509 84.1288 180.147 84.1288C180.785 84.1288 181.189 83.4736 181.189 82.6672C181.189 81.8776 180.785 81.2392 180.147 81.2392ZM187.8 88.3792V91.7728L185.515 93.7216V88.3792H187.8ZM194.676 79.408V91H192.324V82.012L190.946 83.104V80.6848L192.593 79.408H194.676ZM203.203 79.408V91H200.851V82.012L199.473 83.104V80.6848L201.119 79.408H203.203Z" fill="#FDE9AA"/>
<line x1="240" y1="18.001" x2="240" y2="164.001" stroke="#FF005A" stroke-width="2"/>
<path d="M309.611 130H307.901L311.549 116.89H312.993L316.66 130H314.95L314.209 126.998H310.352L309.611 130ZM312.271 119.664L310.827 125.516H313.715L312.271 119.664ZM321.42 123.407H325.277V124.167C325.277 128.404 323.738 130.152 321.401 130.152C319.045 130.152 317.563 128.404 317.563 124.167V122.723C317.563 118.486 319.045 116.738 321.401 116.738C323.529 116.738 324.859 118.087 325.201 120.975H323.662C323.32 119.018 322.674 118.22 321.401 118.22C319.862 118.22 319.197 119.398 319.197 122.723V124.167C319.197 127.492 319.862 128.67 321.401 128.67C322.769 128.67 323.586 127.644 323.643 124.889H321.42V123.407ZM327.335 116.89H333.738V118.372H328.969V122.476H333.282V123.958H328.969V128.518H333.738V130H327.335V116.89ZM340.003 130H338.293L341.941 116.89H343.385L347.052 130H345.342L344.601 126.998H340.744L340.003 130ZM342.663 119.664L341.219 125.516H344.107L342.663 119.664ZM354.055 116.89H355.689V130H354.169L350.122 120.918V130H348.488V116.89H349.951L354.055 126.067V116.89ZM361.686 130H358.266V116.89H361.686C364.004 116.89 365.486 118.524 365.486 122.761V124.129C365.486 128.366 364.004 130 361.686 130ZM361.686 128.518C363.206 128.518 363.852 127.378 363.852 124.129V122.761C363.852 119.512 363.187 118.372 361.686 118.372H359.9V128.518H361.686ZM287.053 140.89H293.456V142.372H288.687V146.476H293V147.958H288.687V152.518H293.456V154H287.053V140.89ZM302.453 144.975H300.914C300.534 142.923 299.869 142.22 298.653 142.22C297.133 142.22 296.449 143.398 296.449 146.723V148.167C296.449 151.473 297.114 152.67 298.653 152.67C299.945 152.67 300.553 151.834 300.914 149.915H302.434C302.111 152.86 300.743 154.152 298.653 154.152C296.297 154.152 294.815 152.404 294.815 148.167V146.723C294.815 142.486 296.297 140.738 298.653 140.738C300.819 140.738 302.111 142.106 302.453 144.975ZM311.342 148.167C311.342 152.404 309.86 154.152 307.504 154.152C305.148 154.152 303.666 152.404 303.666 148.167V146.723C303.666 142.486 305.148 140.738 307.504 140.738C309.86 140.738 311.342 142.486 311.342 146.723V148.167ZM305.3 146.723V148.167C305.3 151.492 305.946 152.67 307.504 152.67C309.062 152.67 309.708 151.492 309.708 148.167V146.723C309.708 143.398 309.062 142.22 307.504 142.22C305.946 142.22 305.3 143.398 305.3 146.723ZM316.726 147.407H320.583V148.167C320.583 152.404 319.044 154.152 316.707 154.152C314.351 154.152 312.869 152.404 312.869 148.167V146.723C312.869 142.486 314.351 140.738 316.707 140.738C318.835 140.738 320.165 142.087 320.507 144.975H318.968C318.626 143.018 317.98 142.22 316.707 142.22C315.168 142.22 314.503 143.398 314.503 146.723V148.167C314.503 151.492 315.168 152.67 316.707 152.67C318.075 152.67 318.892 151.644 318.949 148.889H316.726V147.407ZM332.069 152.518V154H325.837V152.632L329.333 147.293C330.074 146.153 330.473 145.241 330.473 144.177C330.473 142.885 329.941 142.201 329.048 142.201C328.193 142.201 327.604 142.904 327.566 144.253H326.008C326.008 142.087 327.395 140.738 329.067 140.738C330.853 140.738 332.107 142.087 332.107 144.177C332.107 145.887 331.271 147.16 330.644 148.148L327.87 152.518H332.069ZM344.504 142.885L343.269 143.721C342.756 142.847 342.205 142.22 340.951 142.22C339.83 142.22 339.165 142.98 339.165 144.272C339.165 145.697 339.83 146.248 341.445 146.704C343.459 147.274 344.713 148.319 344.713 150.485C344.713 152.195 343.782 154.152 341.122 154.152C339.393 154.152 338.139 153.43 337.341 152.005L338.633 151.131C339.336 152.138 339.925 152.67 341.122 152.67C342.756 152.67 343.098 151.568 343.098 150.561C343.098 149.421 342.737 148.642 340.799 148.11C338.842 147.578 337.531 146.457 337.531 144.272C337.531 142.448 338.576 140.738 340.989 140.738C342.68 140.738 343.744 141.441 344.504 142.885ZM345.286 140.89H353.057V142.372H349.979V154H348.345V142.372H345.286V140.89ZM354.531 154H352.821L356.469 140.89H357.913L361.58 154H359.87L359.129 150.998H355.272L354.531 154ZM357.191 143.664L355.747 149.516H358.635L357.191 143.664ZM361.336 140.89H369.107V142.372H366.029V154H364.395V142.372H361.336V140.89ZM376.517 140.89H378.151V148.661C378.151 152.537 376.65 154.152 374.313 154.152C371.957 154.152 370.475 152.537 370.475 148.68V140.89H372.109V148.68C372.109 151.625 372.812 152.67 374.313 152.67C375.814 152.67 376.517 151.625 376.517 148.68V140.89ZM387.291 142.885L386.056 143.721C385.543 142.847 384.992 142.22 383.738 142.22C382.617 142.22 381.952 142.98 381.952 144.272C381.952 145.697 382.617 146.248 384.232 146.704C386.246 147.274 387.5 148.319 387.5 150.485C387.5 152.195 386.569 154.152 383.909 154.152C382.18 154.152 380.926 153.43 380.128 152.005L381.42 151.131C382.123 152.138 382.712 152.67 383.909 152.67C385.543 152.67 385.885 151.568 385.885 150.561C385.885 149.421 385.524 148.642 383.586 148.11C381.629 147.578 380.318 146.457 380.318 144.272C380.318 142.448 381.363 140.738 383.776 140.738C385.467 140.738 386.531 141.441 387.291 142.885Z" fill="white"/>
<path d="M391.442 139.316V145.812H390.595V139.316H391.442ZM393.472 139.316V145.812H392.625V139.316H393.472Z" fill="white"/>
<path d="M498.794 119.975H497.255C496.875 117.923 496.21 117.22 494.994 117.22C493.474 117.22 492.79 118.398 492.79 121.723V123.167C492.79 126.473 493.455 127.67 494.994 127.67C496.286 127.67 496.894 126.834 497.255 124.915H498.775C498.452 127.86 497.084 129.152 494.994 129.152C492.638 129.152 491.156 127.404 491.156 123.167V121.723C491.156 117.486 492.638 115.738 494.994 115.738C497.16 115.738 498.452 117.106 498.794 119.975ZM506.58 115.89H508.214V123.661C508.214 127.537 506.713 129.152 504.376 129.152C502.02 129.152 500.538 127.537 500.538 123.68V115.89H502.172V123.68C502.172 126.625 502.875 127.67 504.376 127.67C505.877 127.67 506.58 126.625 506.58 123.68V115.89ZM512.433 115.89L515.34 123.813L518.228 115.89H519.881V129H518.247V120.203L515.986 126.264H514.637L512.433 120.203V129H510.799V115.89H512.433ZM528.512 115.89H530.146V123.661C530.146 127.537 528.645 129.152 526.308 129.152C523.952 129.152 522.47 127.537 522.47 123.68V115.89H524.104V123.68C524.104 126.625 524.807 127.67 526.308 127.67C527.809 127.67 528.512 126.625 528.512 123.68V115.89ZM534.364 115.89V127.518H539.133V129H532.73V115.89H534.364ZM541.149 129H539.439L543.087 115.89H544.531L548.198 129H546.488L545.747 125.998H541.89L541.149 129ZM543.809 118.664L542.365 124.516H545.253L543.809 118.664ZM547.954 115.89H555.725V117.372H552.647V129H551.013V117.372H547.954V115.89ZM558.879 115.89V129H557.245V115.89H558.879ZM560.48 115.89H562.209L564.983 126.15L567.757 115.89H569.486L565.705 129H564.28L560.48 115.89ZM570.935 115.89H577.338V117.372H572.569V121.476H576.882V122.958H572.569V127.518H577.338V129H570.935V115.89ZM581.816 115.89H589.587V117.372H586.509V129H584.875V117.372H581.816V115.89ZM598.099 123.167C598.099 127.404 596.617 129.152 594.261 129.152C591.905 129.152 590.423 127.404 590.423 123.167V121.723C590.423 117.486 591.905 115.738 594.261 115.738C596.617 115.738 598.099 117.486 598.099 121.723V123.167ZM592.057 121.723V123.167C592.057 126.492 592.703 127.67 594.261 127.67C595.819 127.67 596.465 126.492 596.465 123.167V121.723C596.465 118.398 595.819 117.22 594.261 117.22C592.703 117.22 592.057 118.398 592.057 121.723ZM600.733 129H598.966L601.968 122.236L599.308 115.89H601.075L602.899 120.697L604.742 115.89H606.509L603.83 122.236L606.851 129H605.084L602.899 123.908L600.733 129ZM610.238 115.89V129H608.604V115.89H610.238ZM620.086 119.975H618.547C618.167 117.923 617.502 117.22 616.286 117.22C614.766 117.22 614.082 118.398 614.082 121.723V123.167C614.082 126.473 614.747 127.67 616.286 127.67C617.578 127.67 618.186 126.834 618.547 124.915H620.067C619.744 127.86 618.376 129.152 616.286 129.152C613.93 129.152 612.448 127.404 612.448 123.167V121.723C612.448 117.486 613.93 115.738 616.286 115.738C618.452 115.738 619.744 117.106 620.086 119.975ZM623.616 115.89V129H621.982V115.89H623.616ZM625.141 115.89H632.912V117.372H629.834V129H628.2V117.372H625.141V115.89ZM636.066 115.89V129H634.432V115.89H636.066ZM638.808 115.89H645.211V117.372H640.442V121.476H644.755V122.958H640.442V127.518H645.211V129H638.808V115.89ZM653.657 117.885L652.422 118.721C651.909 117.847 651.358 117.22 650.104 117.22C648.983 117.22 648.318 117.98 648.318 119.272C648.318 120.697 648.983 121.248 650.598 121.704C652.612 122.274 653.866 123.319 653.866 125.485C653.866 127.195 652.935 129.152 650.275 129.152C648.546 129.152 647.292 128.43 646.494 127.005L647.786 126.131C648.489 127.138 649.078 127.67 650.275 127.67C651.909 127.67 652.251 126.568 652.251 125.561C652.251 124.421 651.89 123.642 649.952 123.11C647.995 122.578 646.684 121.457 646.684 119.272C646.684 117.448 647.729 115.738 650.142 115.738C651.833 115.738 652.897 116.441 653.657 117.885ZM506.939 139.89H513.342V141.372H508.573V145.78H512.886V147.262H508.573V153H506.939V139.89ZM522.59 153H520.861L518.752 147.471H516.719V153H515.085V139.89H518.467C520.899 139.89 522.324 141.144 522.324 143.69C522.324 145.533 521.602 146.692 520.291 147.186L522.59 153ZM516.719 145.989H518.467C520.139 145.989 520.69 145.305 520.69 143.69C520.69 142.056 520.139 141.372 518.467 141.372H516.719V145.989ZM531.488 147.167C531.488 151.404 530.006 153.152 527.65 153.152C525.294 153.152 523.812 151.404 523.812 147.167V145.723C523.812 141.486 525.294 139.738 527.65 139.738C530.006 139.738 531.488 141.486 531.488 145.723V147.167ZM525.446 145.723V147.167C525.446 150.492 526.092 151.67 527.65 151.67C529.208 151.67 529.854 150.492 529.854 147.167V145.723C529.854 142.398 529.208 141.22 527.65 141.22C526.092 141.22 525.446 142.398 525.446 145.723ZM535.181 139.89L538.088 147.813L540.976 139.89H542.629V153H540.995V144.203L538.734 150.264H537.385L535.181 144.203V153H533.547V139.89H535.181ZM549.021 139.89H552.27C554.74 139.89 555.956 141.049 555.956 143.234C555.956 144.602 555.234 145.856 554.227 146.16C555.538 146.464 556.298 147.566 556.298 149.238C556.298 151.138 555.329 153 552.593 153H549.021V139.89ZM550.655 146.939V151.518H552.593C554.075 151.518 554.664 150.663 554.664 149.238C554.664 147.661 553.98 146.939 552.365 146.939H550.655ZM550.655 141.353V145.457H552.479C553.847 145.457 554.322 144.526 554.322 143.234C554.322 142.075 553.98 141.353 552.27 141.353H550.655ZM559.992 139.89V153H558.358V139.89H559.992ZM569.877 147.167C569.877 151.404 568.395 153.152 566.039 153.152C563.683 153.152 562.201 151.404 562.201 147.167V145.723C562.201 141.486 563.683 139.738 566.039 139.738C568.395 139.738 569.877 141.486 569.877 145.723V147.167ZM563.835 145.723V147.167C563.835 150.492 564.481 151.67 566.039 151.67C567.597 151.67 568.243 150.492 568.243 147.167V145.723C568.243 142.398 567.597 141.22 566.039 141.22C564.481 141.22 563.835 142.398 563.835 145.723ZM579.043 143.975H577.504C577.124 141.923 576.459 141.22 575.243 141.22C573.723 141.22 573.039 142.398 573.039 145.723V147.167C573.039 150.473 573.704 151.67 575.243 151.67C576.535 151.67 577.143 150.834 577.504 148.915H579.024C578.701 151.86 577.333 153.152 575.243 153.152C572.887 153.152 571.405 151.404 571.405 147.167V145.723C571.405 141.486 572.887 139.738 575.243 139.738C577.409 139.738 578.701 141.106 579.043 143.975ZM582.421 139.89V145.476H586.335V139.89H587.969V153H586.335V146.958H582.421V153H580.787V139.89H582.421ZM590.547 139.89H596.95V141.372H592.181V145.476H596.494V146.958H592.181V151.518H596.95V153H590.547V139.89ZM600.475 139.89L603.382 147.813L606.27 139.89H607.923V153H606.289V144.203L604.028 150.264H602.679L600.475 144.203V153H598.841V139.89H600.475ZM612.298 139.89V153H610.664V139.89H612.298ZM622.145 143.975H620.606C620.226 141.923 619.561 141.22 618.345 141.22C616.825 141.22 616.141 142.398 616.141 145.723V147.167C616.141 150.473 616.806 151.67 618.345 151.67C619.637 151.67 620.245 150.834 620.606 148.915H622.126C621.803 151.86 620.435 153.152 618.345 153.152C615.989 153.152 614.507 151.404 614.507 147.167V145.723C614.507 141.486 615.989 139.738 618.345 139.738C620.511 139.738 621.803 141.106 622.145 143.975ZM624.46 153H622.75L626.398 139.89H627.842L631.509 153H629.799L629.058 149.998H625.201L624.46 153ZM627.12 142.664L625.676 148.516H628.564L627.12 142.664ZM634.578 139.89V151.518H639.347V153H632.944V139.89H634.578ZM505.34 165.885L504.105 166.721C503.592 165.847 503.041 165.22 501.787 165.22C500.666 165.22 500.001 165.98 500.001 167.272C500.001 168.697 500.666 169.248 502.281 169.704C504.295 170.274 505.549 171.319 505.549 173.485C505.549 175.195 504.618 177.152 501.958 177.152C500.229 177.152 498.975 176.43 498.177 175.005L499.469 174.131C500.172 175.138 500.761 175.67 501.958 175.67C503.592 175.67 503.934 174.568 503.934 173.561C503.934 172.421 503.573 171.642 501.635 171.11C499.678 170.578 498.367 169.457 498.367 167.272C498.367 165.448 499.412 163.738 501.825 163.738C503.516 163.738 504.58 164.441 505.34 165.885ZM506.239 163.89H508.101L510.191 169.4L512.3 163.89H514.162L511.008 171.376V177H509.374V171.376L506.239 163.89ZM522.076 165.885L520.841 166.721C520.328 165.847 519.777 165.22 518.523 165.22C517.402 165.22 516.737 165.98 516.737 167.272C516.737 168.697 517.402 169.248 519.017 169.704C521.031 170.274 522.285 171.319 522.285 173.485C522.285 175.195 521.354 177.152 518.694 177.152C516.965 177.152 515.711 176.43 514.913 175.005L516.205 174.131C516.908 175.138 517.497 175.67 518.694 175.67C520.328 175.67 520.67 174.568 520.67 173.561C520.67 172.421 520.309 171.642 518.371 171.11C516.414 170.578 515.103 169.457 515.103 167.272C515.103 165.448 516.148 163.738 518.561 163.738C520.252 163.738 521.316 164.441 522.076 165.885ZM522.859 163.89H530.63V165.372H527.552V177H525.918V165.372H522.859V163.89ZM531.998 163.89H538.401V165.372H533.632V169.476H537.945V170.958H533.632V175.518H538.401V177H531.998V163.89ZM541.926 163.89L544.833 171.813L547.721 163.89H549.374V177H547.74V168.203L545.479 174.264H544.13L541.926 168.203V177H540.292V163.89H541.926ZM553.748 163.89V177H552.114V163.89H553.748ZM563.596 167.975H562.057C561.677 165.923 561.012 165.22 559.796 165.22C558.276 165.22 557.592 166.398 557.592 169.723V171.167C557.592 174.473 558.257 175.67 559.796 175.67C561.088 175.67 561.696 174.834 562.057 172.915H563.577C563.254 175.86 561.886 177.152 559.796 177.152C557.44 177.152 555.958 175.404 555.958 171.167V169.723C555.958 165.486 557.44 163.738 559.796 163.738C561.962 163.738 563.254 165.106 563.596 167.975ZM567.928 163.89H575.699V165.372H572.621V177H570.987V165.372H567.928V163.89ZM584.572 177H582.843L580.734 171.471H578.701V177H577.067V163.89H580.449C582.881 163.89 584.306 165.144 584.306 167.69C584.306 169.533 583.584 170.692 582.273 171.186L584.572 177ZM578.701 169.989H580.449C582.121 169.989 582.672 169.305 582.672 167.69C582.672 166.056 582.121 165.372 580.449 165.372H578.701V169.989ZM586.326 163.89H592.729V165.372H587.96V169.476H592.273V170.958H587.96V175.518H592.729V177H586.326V163.89ZM595.19 177H593.48L597.128 163.89H598.572L602.239 177H600.529L599.788 173.998H595.931L595.19 177ZM597.85 166.664L596.406 172.516H599.294L597.85 166.664ZM601.994 163.89H609.765V165.372H606.687V177H605.053V165.372H601.994V163.89ZM612.767 163.89L615.674 171.813L618.562 163.89H620.215V177H618.581V168.203L616.32 174.264H614.971L612.767 168.203V177H611.133V163.89H612.767ZM622.804 163.89H629.207V165.372H624.438V169.476H628.751V170.958H624.438V175.518H629.207V177H622.804V163.89ZM636.665 163.89H638.299V177H636.779L632.732 167.918V177H631.098V163.89H632.561L636.665 173.067V163.89ZM639.66 163.89H647.431V165.372H644.353V177H642.719V165.372H639.66V163.89Z" fill="white"/>
<path d="M785.395 124.003H783.609V129H781.975V115.89H785.395C787.808 115.89 789.214 117.41 789.214 119.956C789.214 122.483 787.827 124.003 785.395 124.003ZM783.609 122.521H785.395C787.048 122.521 787.58 121.571 787.58 119.956C787.58 118.322 787.048 117.372 785.395 117.372H783.609V122.521ZM798.118 123.167C798.118 127.404 796.636 129.152 794.28 129.152C791.924 129.152 790.442 127.404 790.442 123.167V121.723C790.442 117.486 791.924 115.738 794.28 115.738C796.636 115.738 798.118 117.486 798.118 121.723V123.167ZM792.076 121.723V123.167C792.076 126.492 792.722 127.67 794.28 127.67C795.838 127.67 796.484 126.492 796.484 123.167V121.723C796.484 118.398 795.838 117.22 794.28 117.22C792.722 117.22 792.076 118.398 792.076 121.723ZM807.321 123.167C807.321 127.404 805.839 129.152 803.483 129.152C801.127 129.152 799.645 127.404 799.645 123.167V121.723C799.645 117.486 801.127 115.738 803.483 115.738C805.839 115.738 807.321 117.486 807.321 121.723V123.167ZM801.279 121.723V123.167C801.279 126.492 801.925 127.67 803.483 127.67C805.041 127.67 805.687 126.492 805.687 123.167V121.723C805.687 118.398 805.041 117.22 803.483 117.22C801.925 117.22 801.279 118.398 801.279 121.723ZM816.885 129H815.156L813.047 123.471H811.014V129H809.38V115.89H812.762C815.194 115.89 816.619 117.144 816.619 119.69C816.619 121.533 815.897 122.692 814.586 123.186L816.885 129ZM811.014 121.989H812.762C814.434 121.989 814.985 121.305 814.985 119.69C814.985 118.056 814.434 117.372 812.762 117.372H811.014V121.989ZM818.639 115.89H825.042V117.372H820.273V121.476H824.586V122.958H820.273V127.518H825.042V129H818.639V115.89ZM834.438 129H832.709L830.6 123.471H828.567V129H826.933V115.89H830.315C832.747 115.89 834.172 117.144 834.172 119.69C834.172 121.533 833.45 122.692 832.139 123.186L834.438 129ZM828.567 121.989H830.315C831.987 121.989 832.538 121.305 832.538 119.69C832.538 118.056 831.987 117.372 830.315 117.372H828.567V121.989ZM846.551 117.885L845.316 118.721C844.803 117.847 844.252 117.22 842.998 117.22C841.877 117.22 841.212 117.98 841.212 119.272C841.212 120.697 841.877 121.248 843.492 121.704C845.506 122.274 846.76 123.319 846.76 125.485C846.76 127.195 845.829 129.152 843.169 129.152C841.44 129.152 840.186 128.43 839.388 127.005L840.68 126.131C841.383 127.138 841.972 127.67 843.169 127.67C844.803 127.67 845.145 126.568 845.145 125.561C845.145 124.421 844.784 123.642 842.846 123.11C840.889 122.578 839.578 121.457 839.578 119.272C839.578 117.448 840.623 115.738 843.036 115.738C844.727 115.738 845.791 116.441 846.551 117.885ZM854.833 115.89H856.467V123.661C856.467 127.537 854.966 129.152 852.629 129.152C850.273 129.152 848.791 127.537 848.791 123.68V115.89H850.425V123.68C850.425 126.625 851.128 127.67 852.629 127.67C854.13 127.67 854.833 126.625 854.833 123.68V115.89ZM866.556 129H864.827L862.718 123.471H860.685V129H859.051V115.89H862.433C864.865 115.89 866.29 117.144 866.29 119.69C866.29 121.533 865.568 122.692 864.257 123.186L866.556 129ZM860.685 121.989H862.433C864.105 121.989 864.656 121.305 864.656 119.69C864.656 118.056 864.105 117.372 862.433 117.372H860.685V121.989ZM867.022 115.89H868.751L871.525 126.15L874.299 115.89H876.028L872.247 129H870.822L867.022 115.89ZM879.262 115.89V129H877.628V115.89H879.262ZM880.863 115.89H882.592L885.366 126.15L888.14 115.89H889.869L886.088 129H884.663L880.863 115.89ZM891.424 129H889.714L893.362 115.89H894.806L898.473 129H896.763L896.022 125.998H892.165L891.424 129ZM894.084 118.664L892.64 124.516H895.528L894.084 118.664ZM901.543 115.89V127.518H906.312V129H899.909V115.89H901.543ZM814.836 147.167C814.836 151.404 813.354 153.152 810.998 153.152C808.642 153.152 807.16 151.404 807.16 147.167V145.723C807.16 141.486 808.642 139.738 810.998 139.738C813.354 139.738 814.836 141.486 814.836 145.723V147.167ZM808.794 145.723V147.167C808.794 150.492 809.44 151.67 810.998 151.67C812.556 151.67 813.202 150.492 813.202 147.167V145.723C813.202 142.398 812.556 141.22 810.998 141.22C809.44 141.22 808.794 142.398 808.794 145.723ZM822.937 139.89H824.571V147.661C824.571 151.537 823.07 153.152 820.733 153.152C818.377 153.152 816.895 151.537 816.895 147.68V139.89H818.529V147.68C818.529 150.625 819.232 151.67 820.733 151.67C822.234 151.67 822.937 150.625 822.937 147.68V139.89ZM825.94 139.89H833.711V141.372H830.633V153H828.999V141.372H825.94V139.89ZM842.185 143.975H840.646C840.266 141.923 839.601 141.22 838.385 141.22C836.865 141.22 836.181 142.398 836.181 145.723V147.167C836.181 150.473 836.846 151.67 838.385 151.67C839.677 151.67 840.285 150.834 840.646 148.915H842.166C841.843 151.86 840.475 153.152 838.385 153.152C836.029 153.152 834.547 151.404 834.547 147.167V145.723C834.547 141.486 836.029 139.738 838.385 139.738C840.551 139.738 841.843 141.106 842.185 143.975ZM851.073 147.167C851.073 151.404 849.591 153.152 847.235 153.152C844.879 153.152 843.397 151.404 843.397 147.167V145.723C843.397 141.486 844.879 139.738 847.235 139.738C849.591 139.738 851.073 141.486 851.073 145.723V147.167ZM845.031 145.723V147.167C845.031 150.492 845.677 151.67 847.235 151.67C848.793 151.67 849.439 150.492 849.439 147.167V145.723C849.439 142.398 848.793 141.22 847.235 141.22C845.677 141.22 845.031 142.398 845.031 145.723ZM854.766 139.89L857.673 147.813L860.561 139.89H862.214V153H860.58V144.203L858.319 150.264H856.97L854.766 144.203V153H853.132V139.89H854.766ZM864.803 139.89H871.206V141.372H866.437V145.476H870.75V146.958H866.437V151.518H871.206V153H864.803V139.89ZM879.652 141.885L878.417 142.721C877.904 141.847 877.353 141.22 876.099 141.22C874.978 141.22 874.313 141.98 874.313 143.272C874.313 144.697 874.978 145.248 876.593 145.704C878.607 146.274 879.861 147.319 879.861 149.485C879.861 151.195 878.93 153.152 876.27 153.152C874.541 153.152 873.287 152.43 872.489 151.005L873.781 150.131C874.484 151.138 875.073 151.67 876.27 151.67C877.904 151.67 878.246 150.568 878.246 149.561C878.246 148.421 877.885 147.642 875.947 147.11C873.99 146.578 872.679 145.457 872.679 143.272C872.679 141.448 873.724 139.738 876.137 139.738C877.828 139.738 878.892 140.441 879.652 141.885Z" fill="white"/>
<path d="M351.204 11.2397C351.204 6.57466 347.254 2.79102 342.359 2.79102C337.465 2.79102 333.515 6.57466 333.515 11.2397C333.515 15.9048 337.465 19.6884 342.359 19.6884C347.254 19.6884 351.204 15.9048 351.204 11.2397Z" fill="#FFEFAE"/>
<path d="M363.526 47.1844L353.243 42.5194C351.161 41.5735 349.615 39.8106 349.014 37.7038C347.64 32.9313 344.806 24.5256 341.307 23.2787C336.134 21.4299 330.273 23.5367 326.044 26.9334C322.781 29.5561 319.067 32.5443 316.749 34.4147C315.31 35.5755 314.366 37.2309 314.13 39.0152C313.55 43.4868 312.498 51.5055 312.305 52.9244C312.047 54.9237 313.507 56.7295 315.589 56.966C317.672 57.224 319.561 55.8051 319.818 53.8273L321.214 43.1428C321.45 41.3585 322.394 39.7032 323.833 38.5423L329.2 34.2427C325.658 50.1727 326.409 46.7975 325.443 51.1401C325.98 51.9355 349.615 87.6436 350.13 88.439C351.676 90.7608 354.875 91.4487 357.3 89.9869C359.726 88.525 360.456 85.4508 358.91 83.129L339.289 53.5048L342.08 40.95L343.475 43.8308C344.248 45.4431 345.601 46.733 347.254 47.4854L360.435 53.4618C362.238 54.2788 364.385 53.5478 365.243 51.828C366.102 50.1082 365.329 48.0444 363.526 47.2274" fill="#FFEFAE"/>
<path d="M320.913 69.9506C320.827 70.273 320.676 70.5525 320.462 70.8105L310.479 83.7093C308.955 85.6871 309.385 88.4603 311.445 89.9222C313.506 91.384 316.404 90.9756 317.929 88.9978C319.088 87.5144 327.031 77.2384 328.898 74.8306C329.092 74.5726 329.242 74.2716 329.349 73.9707C329.8 72.4228 330.981 68.2307 331.195 67.5643L324.176 58.5566L320.913 69.9721V69.9506Z" fill="white"/>
<path d="M444.586 34.0273V66.1883" stroke="#FF005A" stroke-width="7"/>
<path d="M427.627 49.7637H460.837" stroke="#FF005A" stroke-width="7"/>
<path d="M683.088 44.1963H707.711" stroke="#FF005A" stroke-width="7"/>
<path d="M683.088 56.0205H707.711" stroke="#FF005A" stroke-width="7"/>
<path d="M575.708 29.0615H566.37V39.0581L568.152 63.2218H573.927L575.708 39.1656V29.0615ZM574.27 76.1206H567.808V69.5637H574.27V76.1206Z" fill="white"/>
<path d="M568.001 9.62758L527.278 80.4204C525.926 82.7636 527.621 85.7089 530.326 85.7089H611.773C614.478 85.7089 616.174 82.7636 614.822 80.4204L574.098 9.62758C572.746 7.2843 569.354 7.2843 568.001 9.62758Z" stroke="#FFEFAE" stroke-width="4" stroke-miterlimit="10"/>
<path d="M885.31 85.5587H925.862C925.068 64.0822 916.459 44.5836 902.827 29.836L874.147 58.5572C880.501 65.9095 884.58 75.2826 885.289 85.5802L885.31 85.5587ZM869.51 53.8707L898.169 25.1709C883.421 11.4552 863.907 2.79153 842.44 1.97461V42.5843C852.766 43.3152 862.147 47.4428 869.51 53.8707ZM835.849 42.5843V1.97461C814.403 2.79153 794.911 11.4122 780.163 25.1064L808.843 53.8062C816.185 47.4213 825.566 43.3152 835.849 42.5843Z" stroke="#FFEFAE" stroke-width="2" stroke-miterlimit="10"/>
<path d="M804.185 58.4918L775.527 29.7705C761.852 44.5396 753.222 64.0598 752.428 85.5577H792.98C793.688 75.2387 797.788 65.8441 804.185 58.4918Z" fill="#FDE9AA" stroke="#FFEFAE" stroke-miterlimit="10"/>
<path d="M771.041 62.2397C770.277 62.0474 769.495 62.4788 769.249 63.2274C769.004 63.976 769.38 64.7868 770.109 65.0837L803.18 78.5414L836.25 91.9991C836.286 92.0139 836.323 92.0271 836.36 92.039L836.816 90.6098C836.36 92.039 836.361 92.0392 836.362 92.0395L836.364 92.04L836.367 92.0412L836.376 92.0439L836.398 92.0507C836.415 92.0558 836.437 92.062 836.462 92.069C836.512 92.0831 836.579 92.1006 836.661 92.1196C836.824 92.1575 837.048 92.2019 837.318 92.2356C837.852 92.3023 838.602 92.3318 839.431 92.1629C840.27 91.992 841.196 91.6156 842.038 90.8726C842.881 90.1281 843.567 89.0785 844.019 87.6713L844.021 87.6654C844.466 86.2577 844.513 85.0054 844.255 83.9111C843.998 82.819 843.46 81.9767 842.874 81.3525C842.295 80.7355 841.666 80.326 841.192 80.0718C840.953 79.9432 840.744 79.8499 840.59 79.7867C840.512 79.755 840.448 79.7306 840.398 79.7128C840.373 79.7039 840.353 79.6966 840.336 79.691L840.314 79.6836L840.305 79.6808L840.301 79.6796L840.3 79.679C840.299 79.6787 840.298 79.6785 839.843 81.1077L840.298 79.6785C840.268 79.6691 840.239 79.6606 840.209 79.6531L771.041 62.2397Z" fill="white" stroke="#0E0F22" stroke-width="3" stroke-linejoin="round"/>
</svg>
