<svg width="333" height="268" viewBox="0 0 333 268" fill="none" xmlns="http://www.w3.org/2000/svg">
<g clip-path="url(#clip0_1105_2093)">
<rect width="333" height="267" transform="translate(0 0.363281)" fill="#000525"/>
<path d="M207.584 174.017L214.326 155.688H218.168V186.016H214.373V165.664L209.093 179.687H205.957L200.819 165.664V186.016H197V155.688H200.819L207.584 174.017Z" fill="white"/>
<path d="M225.876 172.535C225.876 180.229 227.385 182.958 231.015 182.958C234.645 182.958 236.154 180.229 236.154 172.535V169.194C236.154 161.5 234.645 158.771 231.015 158.771C227.385 158.771 225.876 161.5 225.876 169.194V172.535ZM231.015 186.393C225.523 186.393 222.081 182.346 222.081 172.535V169.194C222.081 159.383 225.546 155.336 231.015 155.336C236.484 155.336 239.949 159.383 239.949 169.194V172.535C239.949 182.346 236.484 186.393 231.015 186.393Z" fill="white"/>
<path d="M260.646 155.688V186.016H257.11L247.681 165.006V186.016H243.862V155.688H247.28L256.85 176.934V155.688H260.646Z" fill="white"/>
<path d="M281.082 155.688V159.124H273.893V186.016H270.097V159.124H262.955V155.688H281.082Z" fill="white"/>
<path d="M287.188 168.629H296.31V155.688H300.129V186.016H296.31V172.041H287.188V186.016H283.393V155.688H287.188V168.629Z" fill="white"/>
<path d="M317.666 162.253C316.464 160.23 315.191 158.771 312.268 158.771C309.651 158.771 308.096 160.536 308.096 163.524C308.096 166.818 309.651 168.088 313.399 169.147C318.09 170.464 321.013 172.888 321.013 177.899C321.013 181.852 318.845 186.393 312.645 186.393C308.614 186.393 305.691 184.723 303.829 181.429L306.846 179.405C308.473 181.735 309.864 182.958 312.645 182.958C316.464 182.958 317.242 180.417 317.242 178.088C317.242 175.452 316.393 173.641 311.891 172.417C307.341 171.194 304.277 168.606 304.277 163.547C304.277 159.336 306.705 155.359 312.339 155.359C316.275 155.359 318.75 156.983 320.542 160.324L317.666 162.253Z" fill="white"/>
<g clip-path="url(#clip1_1105_2093)">
<path d="M129.058 183.597V162.438L157.899 183.597H182.445V80.8726L151.807 58.3614H130.367L114.843 69.6785V93.0498L127.26 102.177L126.827 155.757L98.9295 135.268L89.9188 134.899L84.1484 130.185C84.1484 130.185 94.6794 124.376 96.1442 111.316C97.609 98.2559 86.3567 86.1345 86.3567 86.1345L53.2877 61.9476C53.2877 61.9476 25.3234 44.6648 6.96898 68.5389C-8.23386 88.313 14.0156 107.696 14.0156 107.696C14.0156 107.696 4.16145 111.45 1.12088 126.655C-2.15272 143.077 9.77651 154.718 9.77651 154.718L44.3546 180.1C44.3546 180.1 57.0496 188.658 74.3719 184.044C86.8449 180.715 91.1173 174.85 91.1173 174.85L103.024 183.597H129.058Z" stroke="#FDE9AA" stroke-miterlimit="10"/>
<path d="M0.554932 131.682C0.554932 119.024 7.05775 110.69 14.1598 106.813C7.21311 102.501 1.74231 94.7588 1.74231 84.0339C1.74231 64.6843 17.5666 55.9033 33.6794 55.9033C49.7922 55.9033 65.6275 64.6843 65.6275 84.045C65.6275 94.77 60.1567 102.512 53.21 106.824C60.3121 110.701 66.8149 119.035 66.8149 131.693C66.8149 152.092 51.8784 161.622 33.6905 161.622C15.5025 161.622 0.554932 152.081 0.554932 131.682ZM42.4127 128.699C42.4127 120.365 38.1181 116.343 33.6905 116.343C29.2628 116.343 24.9682 120.365 24.9682 128.699C24.9682 136.441 28.6635 141.2 33.6905 141.2C38.7174 141.2 42.4127 136.441 42.4127 128.699ZM33.6905 76.4371C29.3959 76.4371 26.2999 80.4589 26.2999 87.162C26.2999 93.865 29.407 98.1774 33.6905 98.1774C37.9739 98.1774 41.081 94.0103 41.081 87.162C41.081 80.3137 37.9739 76.4371 33.6905 76.4371Z" fill="#FDE9AA"/>
<path d="M98.3079 160.125H72.2744V133.916H98.3079V160.125Z" fill="#FDE9AA"/>
<path d="M151.695 160.125H127.149V82.9954L114.731 92.078V68.7067L130.256 57.3896H151.695V160.125Z" fill="#FDE9AA"/>
</g>
<path d="M328.494 164.407C327.838 164.407 327.253 164.294 326.739 164.069C326.229 163.843 325.823 163.53 325.521 163.129C325.223 162.725 325.061 162.256 325.034 161.722H326.287C326.313 162.05 326.426 162.334 326.625 162.572C326.824 162.808 327.084 162.99 327.406 163.119C327.727 163.248 328.083 163.313 328.474 163.313C328.912 163.313 329.3 163.237 329.638 163.084C329.976 162.932 330.241 162.72 330.433 162.448C330.625 162.176 330.722 161.861 330.722 161.503C330.722 161.129 330.629 160.799 330.443 160.514C330.258 160.226 329.986 160 329.628 159.838C329.27 159.675 328.832 159.594 328.315 159.594H327.5V158.501H328.315C328.72 158.501 329.074 158.428 329.379 158.282C329.688 158.136 329.928 157.93 330.1 157.665C330.276 157.4 330.364 157.089 330.364 156.731C330.364 156.386 330.287 156.086 330.135 155.831C329.982 155.576 329.767 155.377 329.489 155.234C329.214 155.092 328.889 155.02 328.514 155.02C328.163 155.02 327.831 155.085 327.52 155.214C327.212 155.34 326.96 155.524 326.764 155.766C326.569 156.005 326.463 156.293 326.446 156.631H325.253C325.273 156.098 325.433 155.63 325.735 155.229C326.037 154.825 326.431 154.51 326.918 154.285C327.409 154.059 327.947 153.947 328.534 153.947C329.164 153.947 329.704 154.074 330.155 154.329C330.606 154.581 330.952 154.914 331.194 155.329C331.436 155.743 331.557 156.19 331.557 156.671C331.557 157.244 331.406 157.733 331.104 158.138C330.806 158.542 330.4 158.822 329.886 158.978V159.057C330.529 159.163 331.031 159.437 331.393 159.878C331.754 160.315 331.935 160.857 331.935 161.503C331.935 162.057 331.784 162.554 331.482 162.995C331.184 163.432 330.776 163.777 330.259 164.029C329.742 164.281 329.154 164.407 328.494 164.407Z" fill="white"/>
<path d="M0.8096 216.669C0.8096 213.937 2.4541 213.052 4.7564 213.052H6.7551V211.584C6.7551 209.838 6.2491 209.383 4.807 209.383C3.5926 209.383 3.1119 209.56 2.6059 210.597L1.0626 209.611C1.771 208.143 2.8336 207.511 4.8323 207.511C7.4382 207.511 8.7791 208.548 8.7791 211.584V220.363H6.7551V219.124C6.3756 219.984 5.819 220.566 4.4022 220.566C2.0746 220.566 0.8096 219.124 0.8096 216.669ZM6.7551 215.506V214.772H4.8829C3.3902 214.772 2.8336 215.455 2.8336 216.72C2.8336 218.137 3.5673 218.693 4.7311 218.693C5.819 218.693 6.7551 218.339 6.7551 215.506ZM10.5353 207.713H11.8256V206.802C11.8256 204.171 12.534 202.906 15.0134 202.906H15.6206V204.829H15.1399C14.0267 204.829 13.8496 205.462 13.8496 207.157V207.713H15.6206V209.535H13.8496V220.363H11.8256V209.535H10.5353V207.713ZM16.5638 209.535V207.713H17.8541V204.93H19.8781V207.713H21.978V209.535H19.8781V215.961C19.8781 217.707 19.954 218.44 21.2443 218.44H21.978V220.363H21.0925C18.5878 220.363 17.8541 219.098 17.8541 216.467V209.535H16.5638ZM29.9928 217.428L31.4855 218.466C30.8024 219.958 29.6639 220.566 27.8676 220.566C24.9581 220.566 23.4907 218.365 23.4907 214.848V213.178C23.4907 209.585 24.9328 207.511 27.5387 207.511C30.2964 207.511 31.612 209.257 31.612 213.178V214.494H25.5147V214.848C25.5147 217.024 26.1219 218.744 27.8423 218.744C29.0567 218.744 29.4868 218.263 29.9928 217.428ZM27.5387 209.332C25.9954 209.332 25.5147 210.471 25.5147 212.723H29.588C29.588 210.091 28.9808 209.332 27.5387 209.332ZM41.0117 209.231L39.4431 210.42C39.013 209.687 38.5576 209.383 37.8745 209.383C36.736 209.383 36.0023 210.344 36.0023 212.444V220.363H33.9783V207.713H36.0023V208.953C36.3818 208.143 37.1408 207.511 38.3046 207.511C39.4937 207.511 40.3792 208.093 41.0117 209.231ZM54.23 209.611L52.7626 210.673C52.2566 209.788 51.8012 209.383 50.5615 209.383C49.4736 209.383 48.8411 209.965 48.8411 211.078C48.8411 212.267 49.4989 212.773 50.8651 213.077C52.6867 213.482 54.5336 214.241 54.5336 216.847C54.5336 219.048 53.2433 220.566 50.6627 220.566C48.5881 220.566 47.4749 219.832 46.6906 218.516L48.1327 217.353C48.6387 218.263 49.2965 218.693 50.5362 218.693C51.8518 218.693 52.5096 218.036 52.5096 216.897C52.5096 215.784 52.0542 215.278 50.2579 214.873C48.5628 214.494 46.8171 213.558 46.8171 211.103C46.8171 209.004 48.1833 207.511 50.4856 207.511C52.1554 207.511 53.4204 208.042 54.23 209.611ZM62.7543 217.428L64.247 218.466C63.5639 219.958 62.4254 220.566 60.6291 220.566C57.7196 220.566 56.2522 218.365 56.2522 214.848V213.178C56.2522 209.585 57.6943 207.511 60.3002 207.511C63.0579 207.511 64.3735 209.257 64.3735 213.178V214.494H58.2762V214.848C58.2762 217.024 58.8834 218.744 60.6038 218.744C61.8182 218.744 62.2483 218.263 62.7543 217.428ZM60.3002 209.332C58.7569 209.332 58.2762 210.471 58.2762 212.723H62.3495C62.3495 210.091 61.7423 209.332 60.3002 209.332ZM72.7359 217.428L74.2286 218.466C73.6214 219.933 72.3058 220.566 70.6613 220.566C67.6253 220.566 66.2338 218.339 66.2338 214.848V213.178C66.2338 209.585 67.9036 207.511 70.6613 207.511C72.1793 207.511 73.4949 208.169 74.2286 209.459L72.6853 210.522C72.2046 209.737 71.5468 209.332 70.6613 209.332C69.0421 209.332 68.2578 210.8 68.2578 213.178V214.848C68.2578 217.024 68.8397 218.744 70.6613 218.744C71.5721 218.744 72.1793 218.415 72.7359 217.428ZM83.8768 213.178V214.848C83.8768 218.466 82.3335 220.566 79.6011 220.566C76.8687 220.566 75.3507 218.466 75.3507 214.848V213.178C75.3507 209.56 76.8687 207.511 79.6011 207.511C82.3335 207.511 83.8768 209.56 83.8768 213.178ZM79.6011 218.744C81.3468 218.744 81.8528 217.024 81.8528 214.848V213.178C81.8528 210.8 81.3468 209.332 79.6011 209.332C77.8554 209.332 77.3747 210.8 77.3747 213.178V214.848C77.3747 217.024 77.8554 218.744 79.6011 218.744ZM86.0113 220.363V207.713H88.0606V208.953C88.4401 208.194 89.275 207.511 90.54 207.511C92.5893 207.511 94.1326 208.928 94.1326 212.47V220.363H92.1086V212.495C92.1086 209.94 91.2484 209.383 90.1605 209.383C88.6678 209.383 88.0353 210.572 88.0353 212.47V220.363H86.0113ZM102.806 208.978V202.906H104.83V220.363H102.806V219.25C102.3 220.085 101.591 220.566 100.225 220.566C97.5432 220.566 96.2529 218.137 96.2529 214.848V213.178C96.2529 209.56 97.8468 207.511 100.225 207.511C101.566 207.511 102.35 208.118 102.806 208.978ZM100.554 218.744C102.224 218.744 102.806 217.024 102.806 214.848V213.001C102.806 210.724 101.945 209.332 100.554 209.332C99.0359 209.332 98.2769 210.775 98.2769 213.178V214.848C98.2769 216.998 98.96 218.744 100.554 218.744ZM106.749 213.962V212.141H112.087V213.962H106.749ZM114.004 216.467V202.906H116.028V215.961C116.028 217.327 115.978 218.491 117.597 218.491V220.363C114.865 220.363 114.004 219.098 114.004 216.467ZM120.065 220.363V207.713H122.089V220.363H120.065ZM119.964 205.183V202.906H122.19V205.183H119.964ZM125.024 220.363V207.713H127.073V208.953C127.452 208.194 128.287 207.511 129.552 207.511C131.602 207.511 133.145 208.928 133.145 212.47V220.363H131.121V212.495C131.121 209.94 130.261 209.383 129.173 209.383C127.68 209.383 127.048 210.572 127.048 212.47V220.363H125.024ZM141.767 217.428L143.26 218.466C142.577 219.958 141.438 220.566 139.642 220.566C136.733 220.566 135.265 218.365 135.265 214.848V213.178C135.265 209.585 136.707 207.511 139.313 207.511C142.071 207.511 143.387 209.257 143.387 213.178V214.494H137.289V214.848C137.289 217.024 137.896 218.744 139.617 218.744C140.831 218.744 141.261 218.263 141.767 217.428ZM139.313 209.332C137.77 209.332 137.289 210.471 137.289 212.723H141.363C141.363 210.091 140.755 209.332 139.313 209.332ZM156.814 217.428L158.307 218.466C157.699 219.933 156.384 220.566 154.739 220.566C151.703 220.566 150.312 218.339 150.312 214.848V213.178C150.312 209.585 151.982 207.511 154.739 207.511C156.257 207.511 157.573 208.169 158.307 209.459L156.763 210.522C156.283 209.737 155.625 209.332 154.739 209.332C153.12 209.332 152.336 210.8 152.336 213.178V214.848C152.336 217.024 152.918 218.744 154.739 218.744C155.65 218.744 156.257 218.415 156.814 217.428ZM159.935 220.363V202.906H161.984V208.953C162.364 208.194 163.198 207.511 164.463 207.511C166.513 207.511 168.056 208.928 168.056 212.47V220.363H166.032V212.495C166.032 209.94 165.172 209.383 164.084 209.383C162.591 209.383 161.959 210.572 161.959 212.47V220.363H159.935ZM176.678 217.428L178.171 218.466C177.488 219.958 176.349 220.566 174.553 220.566C171.644 220.566 170.176 218.365 170.176 214.848V213.178C170.176 209.585 171.618 207.511 174.224 207.511C176.982 207.511 178.298 209.257 178.298 213.178V214.494H172.2V214.848C172.2 217.024 172.807 218.744 174.528 218.744C175.742 218.744 176.172 218.263 176.678 217.428ZM174.224 209.332C172.681 209.332 172.2 210.471 172.2 212.723H176.274C176.274 210.091 175.666 209.332 174.224 209.332ZM180.664 220.363V207.713H182.688V208.953C183.067 208.219 183.826 207.511 185.117 207.511C186.432 207.511 187.52 208.118 188.077 209.51C188.735 208.118 189.747 207.511 191.037 207.511C193.086 207.511 194.579 209.181 194.579 212.47V220.363H192.555V212.495C192.555 210.041 191.669 209.383 190.607 209.383C189.468 209.383 188.633 210.344 188.633 212.47V220.363H186.609V212.495C186.609 210.041 185.724 209.383 184.661 209.383C183.498 209.383 182.688 210.446 182.688 212.47V220.363H180.664ZM205.238 213.178V214.848C205.238 218.466 203.694 220.566 200.962 220.566C198.23 220.566 196.712 218.466 196.712 214.848V213.178C196.712 209.56 198.23 207.511 200.962 207.511C203.694 207.511 205.238 209.56 205.238 213.178ZM200.962 218.744C202.708 218.744 203.214 217.024 203.214 214.848V213.178C203.214 210.8 202.708 209.332 200.962 209.332C199.216 209.332 198.736 210.8 198.736 213.178V214.848C198.736 217.024 199.216 218.744 200.962 218.744ZM206.487 209.535V207.713H207.777V204.93H209.801V207.713H211.901V209.535H209.801V215.961C209.801 217.707 209.877 218.44 211.167 218.44H211.901V220.363H211.015C208.511 220.363 207.777 219.098 207.777 216.467V209.535H206.487ZM213.92 220.363V202.906H215.969V208.953C216.348 208.194 217.183 207.511 218.448 207.511C220.498 207.511 222.041 208.928 222.041 212.47V220.363H220.017V212.495C220.017 209.94 219.157 209.383 218.069 209.383C216.576 209.383 215.944 210.572 215.944 212.47V220.363H213.92ZM230.663 217.428L232.156 218.466C231.473 219.958 230.334 220.566 228.538 220.566C225.629 220.566 224.161 218.365 224.161 214.848V213.178C224.161 209.585 225.603 207.511 228.209 207.511C230.967 207.511 232.282 209.257 232.282 213.178V214.494H226.185V214.848C226.185 217.024 226.792 218.744 228.513 218.744C229.727 218.744 230.157 218.263 230.663 217.428ZM228.209 209.332C226.666 209.332 226.185 210.471 226.185 212.723H230.258C230.258 210.091 229.651 209.332 228.209 209.332ZM241.682 209.231L240.114 210.42C239.683 209.687 239.228 209.383 238.545 209.383C237.406 209.383 236.673 210.344 236.673 212.444V220.363H234.649V207.713H236.673V208.953C237.052 208.143 237.811 207.511 238.975 207.511C240.164 207.511 241.05 208.093 241.682 209.231ZM242.098 216.669C242.098 213.937 243.743 213.052 246.045 213.052H248.044V211.584C248.044 209.838 247.538 209.383 246.096 209.383C244.881 209.383 244.401 209.56 243.895 210.597L242.351 209.611C243.06 208.143 244.122 207.511 246.121 207.511C248.727 207.511 250.068 208.548 250.068 211.584V220.363H248.044V219.124C247.664 219.984 247.108 220.566 245.691 220.566C243.363 220.566 242.098 219.124 242.098 216.669ZM248.044 215.506V214.772H246.172C244.679 214.772 244.122 215.455 244.122 216.72C244.122 218.137 244.856 218.693 246.02 218.693C247.108 218.693 248.044 218.339 248.044 215.506ZM254.734 207.713V208.978C255.189 208.118 255.973 207.511 257.314 207.511C259.692 207.511 261.286 209.56 261.286 213.178V214.848C261.286 218.137 259.996 220.566 257.314 220.566C255.948 220.566 255.24 220.085 254.734 219.25V225.17H252.71V207.713H254.734ZM256.985 218.744C258.579 218.744 259.262 216.998 259.262 214.848V213.178C259.262 210.775 258.503 209.332 256.985 209.332C255.594 209.332 254.734 210.724 254.734 213.001V214.848C254.734 217.024 255.316 218.744 256.985 218.744ZM266.014 220.844L266.115 220.49L262.193 207.713H264.369L266.722 215.86L267.102 217.201L269.454 207.713H271.554L268.063 220.768C267.228 223.804 266.596 225.17 263.56 225.17V223.197C264.774 223.197 265.432 222.893 266.014 220.844ZM0.4301 236.713H1.7204V235.802C1.7204 233.171 2.4288 231.906 4.9082 231.906H5.5154V233.829H5.0347C3.9215 233.829 3.7444 234.462 3.7444 236.157V236.713H5.5154V238.535H3.7444V249.363H1.7204V238.535H0.4301V236.713ZM15.3642 242.178V243.848C15.3642 247.466 13.8209 249.566 11.0885 249.566C8.35612 249.566 6.83812 247.466 6.83812 243.848V242.178C6.83812 238.56 8.35612 236.511 11.0885 236.511C13.8209 236.511 15.3642 238.56 15.3642 242.178ZM11.0885 247.744C12.8342 247.744 13.3402 246.024 13.3402 243.848V242.178C13.3402 239.8 12.8342 238.332 11.0885 238.332C9.34282 238.332 8.86212 239.8 8.86212 242.178V243.848C8.86212 246.024 9.34282 247.744 11.0885 247.744ZM17.4987 245.467V231.906H19.5227V244.961C19.5227 246.327 19.4721 247.491 21.0913 247.491V249.363C18.3589 249.363 17.4987 248.098 17.4987 245.467ZM23.2554 245.467V231.906H25.2794V244.961C25.2794 246.327 25.2288 247.491 26.848 247.491V249.363C24.1156 249.363 23.2554 248.098 23.2554 245.467ZM37.0323 242.178V243.848C37.0323 247.466 35.489 249.566 32.7566 249.566C30.0242 249.566 28.5062 247.466 28.5062 243.848V242.178C28.5062 238.56 30.0242 236.511 32.7566 236.511C35.489 236.511 37.0323 238.56 37.0323 242.178ZM32.7566 247.744C34.5023 247.744 35.0083 246.024 35.0083 243.848V242.178C35.0083 239.8 34.5023 238.332 32.7566 238.332C31.0109 238.332 30.5302 239.8 30.5302 242.178V243.848C30.5302 246.024 31.0109 247.744 32.7566 247.744ZM45.2641 240.078L42.7847 249.363H41.0896L38.0536 236.713H40.2294L42.0257 245.594L44.3027 236.713H46.2255L48.5278 245.669L50.2988 236.713H52.4493L49.4639 249.363H47.7435L45.2641 240.078ZM54.2699 249.363V236.713H56.2939V249.363H54.2699ZM54.1687 234.183V231.906H56.3951V234.183H54.1687ZM59.2289 249.363V236.713H61.2782V237.953C61.6577 237.194 62.4926 236.511 63.7576 236.511C65.8069 236.511 67.3502 237.928 67.3502 241.47V249.363H65.3262V241.495C65.3262 238.94 64.466 238.383 63.3781 238.383C61.8854 238.383 61.2529 239.572 61.2529 241.47V249.363H59.2289ZM76.0231 237.978V236.713H78.0471V249.11C78.0471 252.627 76.5797 254.322 73.6955 254.322C71.7727 254.322 70.6342 253.69 69.9258 252.222L71.4691 251.16C71.9245 252.045 72.4305 252.5 73.6449 252.5C75.3906 252.5 76.0231 251.286 76.0231 249.11V248.25C75.5171 249.085 74.8087 249.566 73.4425 249.566C70.7607 249.566 69.4704 247.137 69.4704 243.848V242.178C69.4704 238.56 71.0643 236.511 73.4425 236.511C74.7834 236.511 75.5677 237.118 76.0231 237.978ZM73.7714 247.744C75.4412 247.744 76.0231 246.024 76.0231 243.848V242.001C76.0231 239.724 75.1629 238.332 73.7714 238.332C72.2534 238.332 71.4944 239.775 71.4944 242.178V243.848C71.4944 245.998 72.1775 247.744 73.7714 247.744ZM86.0431 249.363V236.713H88.0671V249.363H86.0431ZM85.9419 234.183V231.906H88.1683V234.183H85.9419ZM91.0021 249.363V236.713H93.0514V237.953C93.4309 237.194 94.2658 236.511 95.5308 236.511C97.5801 236.511 99.1234 237.928 99.1234 241.47V249.363H97.0994V241.495C97.0994 238.94 96.2392 238.383 95.1513 238.383C93.6586 238.383 93.0261 239.572 93.0261 241.47V249.363H91.0021ZM102.053 249.363V236.713H104.077V249.363H102.053ZM101.952 234.183V231.906H104.178V234.183H101.952ZM106.127 238.535V236.713H107.417V233.93H109.441V236.713H111.541V238.535H109.441V244.961C109.441 246.707 109.517 247.44 110.807 247.44H111.541V249.363H110.655C108.151 249.363 107.417 248.098 107.417 245.467V238.535H106.127ZM113.863 249.363V236.713H115.887V249.363H113.863ZM113.762 234.183V231.906H115.988V234.183H113.762ZM118.316 245.669C118.316 242.937 119.961 242.052 122.263 242.052H124.262V240.584C124.262 238.838 123.756 238.383 122.314 238.383C121.099 238.383 120.619 238.56 120.113 239.597L118.569 238.611C119.278 237.143 120.34 236.511 122.339 236.511C124.945 236.511 126.286 237.548 126.286 240.584V249.363H124.262V248.124C123.882 248.984 123.326 249.566 121.909 249.566C119.581 249.566 118.316 248.124 118.316 245.669ZM124.262 244.506V243.772H122.39C120.897 243.772 120.34 244.455 120.34 245.72C120.34 247.137 121.074 247.693 122.238 247.693C123.326 247.693 124.262 247.339 124.262 244.506ZM128.927 245.467V231.906H130.951V244.961C130.951 246.327 130.901 247.491 132.52 247.491V249.363C129.788 249.363 128.927 248.098 128.927 245.467ZM145.745 246.428L147.238 247.466C146.631 248.933 145.315 249.566 143.671 249.566C140.635 249.566 139.243 247.339 139.243 243.848V242.178C139.243 238.585 140.913 236.511 143.671 236.511C145.189 236.511 146.504 237.169 147.238 238.459L145.695 239.522C145.214 238.737 144.556 238.332 143.671 238.332C142.051 238.332 141.267 239.8 141.267 242.178V243.848C141.267 246.024 141.849 247.744 143.671 247.744C144.581 247.744 145.189 247.415 145.745 246.428ZM156.886 242.178V243.848C156.886 247.466 155.343 249.566 152.61 249.566C149.878 249.566 148.36 247.466 148.36 243.848V242.178C148.36 238.56 149.878 236.511 152.61 236.511C155.343 236.511 156.886 238.56 156.886 242.178ZM152.61 247.744C154.356 247.744 154.862 246.024 154.862 243.848V242.178C154.862 239.8 154.356 238.332 152.61 238.332C150.865 238.332 150.384 239.8 150.384 242.178V243.848C150.384 246.024 150.865 247.744 152.61 247.744ZM159.021 249.363V236.713H161.045V237.953C161.424 237.219 162.183 236.511 163.473 236.511C164.789 236.511 165.877 237.118 166.433 238.51C167.091 237.118 168.103 236.511 169.394 236.511C171.443 236.511 172.936 238.181 172.936 241.47V249.363H170.912V241.495C170.912 239.041 170.026 238.383 168.963 238.383C167.825 238.383 166.99 239.344 166.99 241.47V249.363H164.966V241.495C164.966 239.041 164.081 238.383 163.018 238.383C161.854 238.383 161.045 239.446 161.045 241.47V249.363H159.021ZM177.598 231.906V237.978C178.054 237.118 178.838 236.511 180.179 236.511C182.557 236.511 184.151 238.56 184.151 242.178V243.848C184.151 247.137 182.861 249.566 180.179 249.566C178.813 249.566 178.104 249.085 177.598 248.25V249.363H175.574V231.906H177.598ZM179.85 247.744C181.444 247.744 182.127 245.998 182.127 243.848V242.178C182.127 239.775 181.368 238.332 179.85 238.332C178.458 238.332 177.598 239.724 177.598 242.001V243.848C177.598 246.024 178.18 247.744 179.85 247.744ZM186.576 249.363V236.713H188.6V249.363H186.576ZM186.475 234.183V231.906H188.701V234.183H186.475ZM191.535 249.363V236.713H193.584V237.953C193.964 237.194 194.799 236.511 196.064 236.511C198.113 236.511 199.656 237.928 199.656 241.47V249.363H197.632V241.495C197.632 238.94 196.772 238.383 195.684 238.383C194.192 238.383 193.559 239.572 193.559 241.47V249.363H191.535ZM201.777 245.669C201.777 242.937 203.421 242.052 205.723 242.052H207.722V240.584C207.722 238.838 207.216 238.383 205.774 238.383C204.56 238.383 204.079 238.56 203.573 239.597L202.03 238.611C202.738 237.143 203.801 236.511 205.799 236.511C208.405 236.511 209.746 237.548 209.746 240.584V249.363H207.722V248.124C207.343 248.984 206.786 249.566 205.369 249.566C203.042 249.566 201.777 248.124 201.777 245.669ZM207.722 244.506V243.772H205.85C204.357 243.772 203.801 244.455 203.801 245.72C203.801 247.137 204.534 247.693 205.698 247.693C206.786 247.693 207.722 247.339 207.722 244.506ZM211.502 238.535V236.713H212.793V233.93H214.817V236.713H216.916V238.535H214.817V244.961C214.817 246.707 214.892 247.44 216.183 247.44H216.916V249.363H216.031C213.526 249.363 212.793 248.098 212.793 245.467V238.535H211.502ZM219.239 249.363V236.713H221.263V249.363H219.239ZM219.138 234.183V231.906H221.364V234.183H219.138ZM232.218 242.178V243.848C232.218 247.466 230.675 249.566 227.942 249.566C225.21 249.566 223.692 247.466 223.692 243.848V242.178C223.692 238.56 225.21 236.511 227.942 236.511C230.675 236.511 232.218 238.56 232.218 242.178ZM227.942 247.744C229.688 247.744 230.194 246.024 230.194 243.848V242.178C230.194 239.8 229.688 238.332 227.942 238.332C226.196 238.332 225.716 239.8 225.716 242.178V243.848C225.716 246.024 226.196 247.744 227.942 247.744ZM234.352 249.363V236.713H236.402V237.953C236.781 237.194 237.616 236.511 238.881 236.511C240.93 236.511 242.474 237.928 242.474 241.47V249.363H240.45V241.495C240.45 238.94 239.589 238.383 238.502 238.383C237.009 238.383 236.376 239.572 236.376 241.47V249.363H234.352ZM249.279 238.535V236.713H250.57V233.93H252.594V236.713H254.694V238.535H252.594V244.961C252.594 246.707 252.67 247.44 253.96 247.44H254.694V249.363H253.808C251.303 249.363 250.57 248.098 250.57 245.467V238.535H249.279ZM256.712 249.363V231.906H258.761V237.953C259.141 237.194 259.976 236.511 261.241 236.511C263.29 236.511 264.833 237.928 264.833 241.47V249.363H262.809V241.495C262.809 238.94 261.949 238.383 260.861 238.383C259.369 238.383 258.736 239.572 258.736 241.47V249.363H256.712ZM273.456 246.428L274.949 247.466C274.265 248.958 273.127 249.566 271.331 249.566C268.421 249.566 266.954 247.365 266.954 243.848V242.178C266.954 238.585 268.396 236.511 271.002 236.511C273.759 236.511 275.075 238.257 275.075 242.178V243.494H268.978V243.848C268.978 246.024 269.585 247.744 271.305 247.744C272.52 247.744 272.95 247.263 273.456 246.428ZM271.002 238.332C269.458 238.332 268.978 239.471 268.978 241.723H273.051C273.051 239.091 272.444 238.332 271.002 238.332ZM284.475 238.231L282.906 239.42C282.476 238.687 282.021 238.383 281.338 238.383C280.199 238.383 279.465 239.344 279.465 241.444V249.363H277.441V236.713H279.465V237.953C279.845 237.143 280.604 236.511 281.768 236.511C282.957 236.511 283.842 237.093 284.475 238.231ZM284.891 245.669C284.891 242.937 286.536 242.052 288.838 242.052H290.837V240.584C290.837 238.838 290.331 238.383 288.888 238.383C287.674 238.383 287.193 238.56 286.687 239.597L285.144 238.611C285.852 237.143 286.915 236.511 288.914 236.511C291.52 236.511 292.861 237.548 292.861 240.584V249.363H290.837V248.124C290.457 248.984 289.9 249.566 288.484 249.566C286.156 249.566 284.891 248.124 284.891 245.669ZM290.837 244.506V243.772H288.964C287.472 243.772 286.915 244.455 286.915 245.72C286.915 247.137 287.649 247.693 288.813 247.693C289.9 247.693 290.837 247.339 290.837 244.506ZM297.526 236.713V237.978C297.982 237.118 298.766 236.511 300.107 236.511C302.485 236.511 304.079 238.56 304.079 242.178V243.848C304.079 247.137 302.789 249.566 300.107 249.566C298.741 249.566 298.032 249.085 297.526 248.25V254.17H295.502V236.713H297.526ZM299.778 247.744C301.372 247.744 302.055 245.998 302.055 243.848V242.178C302.055 239.775 301.296 238.332 299.778 238.332C298.386 238.332 297.526 239.724 297.526 242.001V243.848C297.526 246.024 298.108 247.744 299.778 247.744ZM308.806 249.844L308.907 249.49L304.986 236.713H307.162L309.515 244.86L309.894 246.201L312.247 236.713H314.347L310.856 249.768C310.021 252.804 309.388 254.17 306.352 254.17V252.197C307.567 252.197 308.224 251.893 308.806 249.844Z" fill="white"/>
<path d="M318.484 230.535V240.598H317.422V230.535H318.484ZM320.625 232.551V233.41H315.313V232.551H320.625ZM320.625 237.504V238.363H315.313V237.504H320.625Z" fill="white"/>
<path d="M4.544 3.52328L10.052 18.5353L15.524 3.52328H18.656V28.3633H15.56V11.6953L11.276 23.1793H8.72L4.544 11.6953V28.3633H1.448V3.52328H4.544ZM22.0613 3.52328H34.1933V6.33128H25.1573V14.1073H33.3293V16.9153H25.1573V25.5553H34.1933V28.3633H22.0613V3.52328ZM42.7561 28.3633H36.2761V3.52328H42.7561C47.1481 3.52328 49.9561 6.61928 49.9561 14.6473V17.2393C49.9561 25.2673 47.1481 28.3633 42.7561 28.3633ZM42.7561 25.5553C45.6361 25.5553 46.8601 23.3953 46.8601 17.2393V14.6473C46.8601 8.49128 45.6001 6.33128 42.7561 6.33128H39.3721V25.5553H42.7561ZM55.7383 3.52328V28.3633H52.6423V3.52328H55.7383ZM60.5124 28.3633H57.2724L64.1844 3.52328H66.9204L73.8684 28.3633H70.6284L69.2244 22.6753H61.9164L60.5124 28.3633ZM65.5524 8.77928L62.8164 19.8673H68.2884L65.5524 8.77928ZM85.6366 3.52328H88.7326V28.3633H85.8526L78.1846 11.1553V28.3633H75.0886V3.52328H77.8606L85.6366 20.9113V3.52328ZM111.359 17.3113C111.359 25.3393 108.551 28.6513 104.087 28.6513C99.623 28.6513 96.815 25.3393 96.815 17.3113V14.5753C96.815 6.54728 99.623 3.23528 104.087 3.23528C108.551 3.23528 111.359 6.54728 111.359 14.5753V17.3113ZM99.911 14.5753V17.3113C99.911 23.6113 101.135 25.8433 104.087 25.8433C107.039 25.8433 108.263 23.6113 108.263 17.3113V14.5753C108.263 8.27528 107.039 6.04328 104.087 6.04328C101.135 6.04328 99.911 8.27528 99.911 14.5753ZM126.181 7.30328L123.841 8.88728C122.869 7.23128 121.825 6.04328 119.449 6.04328C117.325 6.04328 116.064 7.48328 116.064 9.93128C116.064 12.6313 117.325 13.6753 120.385 14.5393C124.201 15.6193 126.577 17.5993 126.577 21.7033C126.577 24.9433 124.813 28.6513 119.773 28.6513C116.497 28.6513 114.121 27.2833 112.609 24.5833L115.057 22.9273C116.389 24.8353 117.505 25.8433 119.773 25.8433C122.869 25.8433 123.517 23.7553 123.517 21.8473C123.517 19.6873 122.833 18.2113 119.161 17.2033C115.453 16.1953 112.969 14.0713 112.969 9.93128C112.969 6.47528 114.949 3.23528 119.521 3.23528C122.725 3.23528 124.741 4.56728 126.181 7.30328ZM153.875 17.3113C153.875 25.3393 151.067 28.6513 146.603 28.6513C142.139 28.6513 139.331 25.3393 139.331 17.3113V14.5753C139.331 6.54728 142.139 3.23528 146.603 3.23528C151.067 3.23528 153.875 6.54728 153.875 14.5753V17.3113ZM142.427 14.5753V17.3113C142.427 23.6113 143.651 25.8433 146.603 25.8433C149.555 25.8433 150.779 23.6113 150.779 17.3113V14.5753C150.779 8.27528 149.555 6.04328 146.603 6.04328C143.651 6.04328 142.427 8.27528 142.427 14.5753ZM156.276 3.52328H168.408V6.33128H159.372V14.6833H167.544V17.4913H159.372V28.3633H156.276V3.52328Z" fill="white"/>
<path d="M127.25 4.56328H129.636V1.59928H130.978V4.56328H133.38V5.78008H130.978V15.3273H129.636V5.78008H127.25V4.56328Z" fill="white"/>
</g>
<defs>
<clipPath id="clip0_1105_2093">
<rect width="333" height="267" fill="white" transform="translate(0 0.363281)"/>
</clipPath>
<clipPath id="clip1_1105_2093">
<rect width="183" height="130.621" fill="white" transform="translate(0 55.3447)"/>
</clipPath>
</defs>
</svg>
