<svg width="333" height="267" viewBox="0 0 333 267" fill="none" xmlns="http://www.w3.org/2000/svg">
<g clip-path="url(#clip0_1105_1793)">
<rect width="333" height="267" fill="#000525"/>
<path d="M207.584 173.654L214.326 155.325H218.168V185.653H214.373V165.301L209.093 179.324H205.957L200.819 165.301V185.653H197V155.325H200.819L207.584 173.654Z" fill="white"/>
<path d="M225.876 172.172C225.876 179.866 227.385 182.595 231.015 182.595C234.645 182.595 236.154 179.866 236.154 172.172V168.831C236.154 161.137 234.645 158.408 231.015 158.408C227.385 158.408 225.876 161.137 225.876 168.831V172.172ZM231.015 186.03C225.523 186.03 222.081 181.983 222.081 172.172V168.831C222.081 159.02 225.546 154.973 231.015 154.973C236.484 154.973 239.949 159.02 239.949 168.831V172.172C239.949 181.983 236.484 186.03 231.015 186.03Z" fill="white"/>
<path d="M260.646 155.325V185.653H257.11L247.681 164.642V185.653H243.862V155.325H247.28L256.851 176.571V155.325H260.646Z" fill="white"/>
<path d="M281.082 155.325V158.76H273.893V185.653H270.097V158.76H262.955V155.325H281.082Z" fill="white"/>
<path d="M287.188 168.266H296.31V155.325H300.129V185.653H296.31V171.677H287.188V185.653H283.393V155.325H287.188V168.266Z" fill="white"/>
<path d="M317.666 161.89C316.464 159.866 315.191 158.408 312.268 158.408C309.651 158.408 308.096 160.172 308.096 163.16C308.096 166.454 309.651 167.725 313.399 168.784C318.09 170.101 321.013 172.525 321.013 177.536C321.013 181.489 318.845 186.03 312.645 186.03C308.614 186.03 305.691 184.359 303.829 181.065L306.846 179.042C308.473 181.371 309.864 182.595 312.645 182.595C316.464 182.595 317.242 180.054 317.242 177.724C317.242 175.089 316.393 173.278 311.891 172.054C307.341 170.831 304.277 168.242 304.277 163.184C304.277 158.972 306.705 154.996 312.339 154.996C316.275 154.996 318.75 156.62 320.542 159.961L317.666 161.89Z" fill="white"/>
<g clip-path="url(#clip1_1105_1793)">
<path d="M129.058 183.234V162.075L157.899 183.234H182.445V80.5093L151.807 57.9982H130.367L114.843 69.3152V92.6866L127.26 101.814L126.827 155.394L98.9295 134.905L89.9188 134.536L84.1484 129.822C84.1484 129.822 94.6794 124.012 96.1442 110.952C97.609 97.8926 86.3567 85.7712 86.3567 85.7712L53.2877 61.5843C53.2877 61.5843 25.3234 44.3016 6.96898 68.1757C-8.23386 87.9497 14.0156 107.333 14.0156 107.333C14.0156 107.333 4.16145 111.086 1.12088 126.291C-2.15272 142.714 9.77651 154.355 9.77651 154.355L44.3546 179.737C44.3546 179.737 57.0496 188.295 74.3719 183.681C86.8449 180.352 91.1173 174.486 91.1173 174.486L103.024 183.234H129.058Z" stroke="#FDE9AA" stroke-miterlimit="10"/>
<path d="M0.554688 131.318C0.554688 118.661 7.05751 110.326 14.1596 106.45C7.21286 102.138 1.74206 94.3955 1.74206 83.6706C1.74206 64.3211 17.5663 55.54 33.6791 55.54C49.7919 55.54 65.6273 64.3211 65.6273 83.6818C65.6273 94.4067 60.1565 102.149 53.2098 106.461C60.3118 110.338 66.8146 118.672 66.8146 131.329C66.8146 151.729 51.8781 161.259 33.6902 161.259C15.5023 161.259 0.554688 151.718 0.554688 131.318ZM42.4124 128.335C42.4124 120.001 38.1179 115.979 33.6902 115.979C29.2625 115.979 24.968 120.001 24.968 128.335C24.968 136.077 28.6633 140.837 33.6902 140.837C38.7171 140.837 42.4124 136.077 42.4124 128.335ZM33.6902 76.0738C29.3957 76.0738 26.2996 80.0956 26.2996 86.7987C26.2996 93.5018 29.4068 97.8141 33.6902 97.8141C37.9736 97.8141 41.0808 93.647 41.0808 86.7987C41.0808 79.9504 37.9736 76.0738 33.6902 76.0738Z" fill="#FDE9AA"/>
<path d="M98.3079 159.762H72.2744V133.553H98.3079V159.762Z" fill="#FDE9AA"/>
<path d="M151.695 159.762H127.149V82.6321L114.731 91.7148V68.3434L130.256 57.0264H151.695V159.762Z" fill="#FDE9AA"/>
</g>
<path d="M328.494 164.044C327.838 164.044 327.253 163.931 326.739 163.705C326.229 163.48 325.823 163.167 325.521 162.766C325.223 162.361 325.061 161.892 325.034 161.359H326.287C326.313 161.687 326.426 161.97 326.625 162.209C326.824 162.444 327.084 162.627 327.406 162.756C327.727 162.885 328.083 162.95 328.474 162.95C328.912 162.95 329.3 162.874 329.638 162.721C329.976 162.569 330.241 162.356 330.433 162.085C330.625 161.813 330.722 161.498 330.722 161.14C330.722 160.766 330.629 160.436 330.443 160.151C330.258 159.862 329.986 159.637 329.628 159.475C329.27 159.312 328.832 159.231 328.315 159.231H327.5V158.137H328.315C328.72 158.137 329.074 158.064 329.379 157.919C329.688 157.773 329.928 157.567 330.1 157.302C330.276 157.037 330.364 156.725 330.364 156.367C330.364 156.023 330.287 155.723 330.135 155.468C329.982 155.212 329.767 155.013 329.489 154.871C329.214 154.728 328.889 154.657 328.514 154.657C328.163 154.657 327.831 154.722 327.52 154.851C327.212 154.977 326.96 155.161 326.764 155.403C326.569 155.642 326.463 155.93 326.446 156.268H325.253C325.273 155.734 325.433 155.267 325.735 154.866C326.037 154.462 326.431 154.147 326.918 153.921C327.409 153.696 327.947 153.583 328.534 153.583C329.164 153.583 329.704 153.711 330.155 153.966C330.606 154.218 330.952 154.551 331.194 154.965C331.436 155.38 331.557 155.827 331.557 156.308C331.557 156.881 331.406 157.37 331.104 157.774C330.806 158.179 330.4 158.459 329.886 158.615V158.694C330.529 158.8 331.031 159.074 331.393 159.514C331.754 159.952 331.935 160.494 331.935 161.14C331.935 161.694 331.784 162.191 331.482 162.632C331.184 163.069 330.776 163.414 330.259 163.666C329.742 163.918 329.154 164.044 328.494 164.044Z" fill="white"/>
<path d="M0.8096 216.306C0.8096 213.574 2.4541 212.688 4.7564 212.688H6.7551V211.221C6.7551 209.475 6.2491 209.02 4.807 209.02C3.5926 209.02 3.1119 209.197 2.6059 210.234L1.0626 209.248C1.771 207.78 2.8336 207.148 4.8323 207.148C7.4382 207.148 8.7791 208.185 8.7791 211.221V220H6.7551V218.76C6.3756 219.62 5.819 220.202 4.4022 220.202C2.0746 220.202 0.8096 218.76 0.8096 216.306ZM6.7551 215.142V214.409H4.8829C3.3902 214.409 2.8336 215.092 2.8336 216.357C2.8336 217.774 3.5673 218.33 4.7311 218.33C5.819 218.33 6.7551 217.976 6.7551 215.142ZM10.5353 207.35H11.8256V206.439C11.8256 203.808 12.534 202.543 15.0134 202.543H15.6206V204.466H15.1399C14.0267 204.466 13.8496 205.098 13.8496 206.793V207.35H15.6206V209.172H13.8496V220H11.8256V209.172H10.5353V207.35ZM16.5638 209.172V207.35H17.8541V204.567H19.8781V207.35H21.978V209.172H19.8781V215.598C19.8781 217.343 19.954 218.077 21.2443 218.077H21.978V220H21.0925C18.5878 220 17.8541 218.735 17.8541 216.104V209.172H16.5638ZM29.9928 217.065L31.4855 218.102C30.8024 219.595 29.6639 220.202 27.8676 220.202C24.9581 220.202 23.4907 218.001 23.4907 214.485V212.815C23.4907 209.222 24.9328 207.148 27.5387 207.148C30.2964 207.148 31.612 208.893 31.612 212.815V214.13H25.5147V214.485C25.5147 216.66 26.1219 218.381 27.8423 218.381C29.0567 218.381 29.4868 217.9 29.9928 217.065ZM27.5387 208.969C25.9954 208.969 25.5147 210.108 25.5147 212.359H29.588C29.588 209.728 28.9808 208.969 27.5387 208.969ZM41.0117 208.868L39.4431 210.057C39.013 209.323 38.5576 209.02 37.8745 209.02C36.736 209.02 36.0023 209.981 36.0023 212.081V220H33.9783V207.35H36.0023V208.59C36.3818 207.78 37.1408 207.148 38.3046 207.148C39.4937 207.148 40.3792 207.73 41.0117 208.868ZM54.23 209.248L52.7626 210.31C52.2566 209.425 51.8012 209.02 50.5615 209.02C49.4736 209.02 48.8411 209.602 48.8411 210.715C48.8411 211.904 49.4989 212.41 50.8651 212.714C52.6867 213.118 54.5336 213.877 54.5336 216.483C54.5336 218.684 53.2433 220.202 50.6627 220.202C48.5881 220.202 47.4749 219.469 46.6906 218.153L48.1327 216.989C48.6387 217.9 49.2965 218.33 50.5362 218.33C51.8518 218.33 52.5096 217.672 52.5096 216.534C52.5096 215.421 52.0542 214.915 50.2579 214.51C48.5628 214.13 46.8171 213.194 46.8171 210.74C46.8171 208.64 48.1833 207.148 50.4856 207.148C52.1554 207.148 53.4204 207.679 54.23 209.248ZM62.7543 217.065L64.247 218.102C63.5639 219.595 62.4254 220.202 60.6291 220.202C57.7196 220.202 56.2522 218.001 56.2522 214.485V212.815C56.2522 209.222 57.6943 207.148 60.3002 207.148C63.0579 207.148 64.3735 208.893 64.3735 212.815V214.13H58.2762V214.485C58.2762 216.66 58.8834 218.381 60.6038 218.381C61.8182 218.381 62.2483 217.9 62.7543 217.065ZM60.3002 208.969C58.7569 208.969 58.2762 210.108 58.2762 212.359H62.3495C62.3495 209.728 61.7423 208.969 60.3002 208.969ZM72.7359 217.065L74.2286 218.102C73.6214 219.57 72.3058 220.202 70.6613 220.202C67.6253 220.202 66.2338 217.976 66.2338 214.485V212.815C66.2338 209.222 67.9036 207.148 70.6613 207.148C72.1793 207.148 73.4949 207.805 74.2286 209.096L72.6853 210.158C72.2046 209.374 71.5468 208.969 70.6613 208.969C69.0421 208.969 68.2578 210.437 68.2578 212.815V214.485C68.2578 216.66 68.8397 218.381 70.6613 218.381C71.5721 218.381 72.1793 218.052 72.7359 217.065ZM83.8768 212.815V214.485C83.8768 218.102 82.3335 220.202 79.6011 220.202C76.8687 220.202 75.3507 218.102 75.3507 214.485V212.815C75.3507 209.197 76.8687 207.148 79.6011 207.148C82.3335 207.148 83.8768 209.197 83.8768 212.815ZM79.6011 218.381C81.3468 218.381 81.8528 216.66 81.8528 214.485V212.815C81.8528 210.437 81.3468 208.969 79.6011 208.969C77.8554 208.969 77.3747 210.437 77.3747 212.815V214.485C77.3747 216.66 77.8554 218.381 79.6011 218.381ZM86.0113 220V207.35H88.0606V208.59C88.4401 207.831 89.275 207.148 90.54 207.148C92.5893 207.148 94.1326 208.564 94.1326 212.106V220H92.1086V212.132C92.1086 209.576 91.2484 209.02 90.1605 209.02C88.6678 209.02 88.0353 210.209 88.0353 212.106V220H86.0113ZM102.806 208.615V202.543H104.83V220H102.806V218.887C102.3 219.722 101.591 220.202 100.225 220.202C97.5432 220.202 96.2529 217.774 96.2529 214.485V212.815C96.2529 209.197 97.8468 207.148 100.225 207.148C101.566 207.148 102.35 207.755 102.806 208.615ZM100.554 218.381C102.224 218.381 102.806 216.66 102.806 214.485V212.638C102.806 210.361 101.945 208.969 100.554 208.969C99.0359 208.969 98.2769 210.411 98.2769 212.815V214.485C98.2769 216.635 98.96 218.381 100.554 218.381ZM106.749 213.599V211.777H112.087V213.599H106.749ZM114.004 216.104V202.543H116.028V215.598C116.028 216.964 115.978 218.128 117.597 218.128V220C114.865 220 114.004 218.735 114.004 216.104ZM120.065 220V207.35H122.089V220H120.065ZM119.964 204.82V202.543H122.19V204.82H119.964ZM125.024 220V207.35H127.073V208.59C127.452 207.831 128.287 207.148 129.552 207.148C131.602 207.148 133.145 208.564 133.145 212.106V220H131.121V212.132C131.121 209.576 130.261 209.02 129.173 209.02C127.68 209.02 127.048 210.209 127.048 212.106V220H125.024ZM141.767 217.065L143.26 218.102C142.577 219.595 141.438 220.202 139.642 220.202C136.733 220.202 135.265 218.001 135.265 214.485V212.815C135.265 209.222 136.707 207.148 139.313 207.148C142.071 207.148 143.387 208.893 143.387 212.815V214.13H137.289V214.485C137.289 216.66 137.896 218.381 139.617 218.381C140.831 218.381 141.261 217.9 141.767 217.065ZM139.313 208.969C137.77 208.969 137.289 210.108 137.289 212.359H141.363C141.363 209.728 140.755 208.969 139.313 208.969ZM156.814 217.065L158.307 218.102C157.699 219.57 156.384 220.202 154.739 220.202C151.703 220.202 150.312 217.976 150.312 214.485V212.815C150.312 209.222 151.982 207.148 154.739 207.148C156.257 207.148 157.573 207.805 158.307 209.096L156.763 210.158C156.283 209.374 155.625 208.969 154.739 208.969C153.12 208.969 152.336 210.437 152.336 212.815V214.485C152.336 216.66 152.918 218.381 154.739 218.381C155.65 218.381 156.257 218.052 156.814 217.065ZM159.935 220V202.543H161.984V208.59C162.364 207.831 163.198 207.148 164.463 207.148C166.513 207.148 168.056 208.564 168.056 212.106V220H166.032V212.132C166.032 209.576 165.172 209.02 164.084 209.02C162.591 209.02 161.959 210.209 161.959 212.106V220H159.935ZM176.678 217.065L178.171 218.102C177.488 219.595 176.349 220.202 174.553 220.202C171.644 220.202 170.176 218.001 170.176 214.485V212.815C170.176 209.222 171.618 207.148 174.224 207.148C176.982 207.148 178.298 208.893 178.298 212.815V214.13H172.2V214.485C172.2 216.66 172.807 218.381 174.528 218.381C175.742 218.381 176.172 217.9 176.678 217.065ZM174.224 208.969C172.681 208.969 172.2 210.108 172.2 212.359H176.274C176.274 209.728 175.666 208.969 174.224 208.969ZM180.664 220V207.35H182.688V208.59C183.067 207.856 183.826 207.148 185.117 207.148C186.432 207.148 187.52 207.755 188.077 209.146C188.735 207.755 189.747 207.148 191.037 207.148C193.086 207.148 194.579 208.817 194.579 212.106V220H192.555V212.132C192.555 209.678 191.669 209.02 190.607 209.02C189.468 209.02 188.633 209.981 188.633 212.106V220H186.609V212.132C186.609 209.678 185.724 209.02 184.661 209.02C183.498 209.02 182.688 210.082 182.688 212.106V220H180.664ZM205.238 212.815V214.485C205.238 218.102 203.694 220.202 200.962 220.202C198.23 220.202 196.712 218.102 196.712 214.485V212.815C196.712 209.197 198.23 207.148 200.962 207.148C203.694 207.148 205.238 209.197 205.238 212.815ZM200.962 218.381C202.708 218.381 203.214 216.66 203.214 214.485V212.815C203.214 210.437 202.708 208.969 200.962 208.969C199.216 208.969 198.736 210.437 198.736 212.815V214.485C198.736 216.66 199.216 218.381 200.962 218.381ZM206.487 209.172V207.35H207.777V204.567H209.801V207.35H211.901V209.172H209.801V215.598C209.801 217.343 209.877 218.077 211.167 218.077H211.901V220H211.015C208.511 220 207.777 218.735 207.777 216.104V209.172H206.487ZM213.92 220V202.543H215.969V208.59C216.348 207.831 217.183 207.148 218.448 207.148C220.498 207.148 222.041 208.564 222.041 212.106V220H220.017V212.132C220.017 209.576 219.157 209.02 218.069 209.02C216.576 209.02 215.944 210.209 215.944 212.106V220H213.92ZM230.663 217.065L232.156 218.102C231.473 219.595 230.334 220.202 228.538 220.202C225.629 220.202 224.161 218.001 224.161 214.485V212.815C224.161 209.222 225.603 207.148 228.209 207.148C230.967 207.148 232.282 208.893 232.282 212.815V214.13H226.185V214.485C226.185 216.66 226.792 218.381 228.513 218.381C229.727 218.381 230.157 217.9 230.663 217.065ZM228.209 208.969C226.666 208.969 226.185 210.108 226.185 212.359H230.258C230.258 209.728 229.651 208.969 228.209 208.969ZM241.682 208.868L240.114 210.057C239.683 209.323 239.228 209.02 238.545 209.02C237.406 209.02 236.673 209.981 236.673 212.081V220H234.649V207.35H236.673V208.59C237.052 207.78 237.811 207.148 238.975 207.148C240.164 207.148 241.05 207.73 241.682 208.868ZM242.098 216.306C242.098 213.574 243.743 212.688 246.045 212.688H248.044V211.221C248.044 209.475 247.538 209.02 246.096 209.02C244.881 209.02 244.401 209.197 243.895 210.234L242.351 209.248C243.06 207.78 244.122 207.148 246.121 207.148C248.727 207.148 250.068 208.185 250.068 211.221V220H248.044V218.76C247.664 219.62 247.108 220.202 245.691 220.202C243.363 220.202 242.098 218.76 242.098 216.306ZM248.044 215.142V214.409H246.172C244.679 214.409 244.122 215.092 244.122 216.357C244.122 217.774 244.856 218.33 246.02 218.33C247.108 218.33 248.044 217.976 248.044 215.142ZM254.734 207.35V208.615C255.189 207.755 255.973 207.148 257.314 207.148C259.692 207.148 261.286 209.197 261.286 212.815V214.485C261.286 217.774 259.996 220.202 257.314 220.202C255.948 220.202 255.24 219.722 254.734 218.887V224.807H252.71V207.35H254.734ZM256.985 218.381C258.579 218.381 259.262 216.635 259.262 214.485V212.815C259.262 210.411 258.503 208.969 256.985 208.969C255.594 208.969 254.734 210.361 254.734 212.638V214.485C254.734 216.66 255.316 218.381 256.985 218.381ZM266.014 220.481L266.115 220.127L262.193 207.35H264.369L266.722 215.497L267.102 216.838L269.454 207.35H271.554L268.063 220.405C267.228 223.441 266.596 224.807 263.56 224.807V222.834C264.774 222.834 265.432 222.53 266.014 220.481ZM0.4301 236.35H1.7204V235.439C1.7204 232.808 2.4288 231.543 4.9082 231.543H5.5154V233.466H5.0347C3.9215 233.466 3.7444 234.098 3.7444 235.793V236.35H5.5154V238.172H3.7444V249H1.7204V238.172H0.4301V236.35ZM15.3642 241.815V243.485C15.3642 247.102 13.8209 249.202 11.0885 249.202C8.35612 249.202 6.83812 247.102 6.83812 243.485V241.815C6.83812 238.197 8.35612 236.148 11.0885 236.148C13.8209 236.148 15.3642 238.197 15.3642 241.815ZM11.0885 247.381C12.8342 247.381 13.3402 245.66 13.3402 243.485V241.815C13.3402 239.437 12.8342 237.969 11.0885 237.969C9.34282 237.969 8.86212 239.437 8.86212 241.815V243.485C8.86212 245.66 9.34282 247.381 11.0885 247.381ZM17.4987 245.104V231.543H19.5227V244.598C19.5227 245.964 19.4721 247.128 21.0913 247.128V249C18.3589 249 17.4987 247.735 17.4987 245.104ZM23.2554 245.104V231.543H25.2794V244.598C25.2794 245.964 25.2288 247.128 26.848 247.128V249C24.1156 249 23.2554 247.735 23.2554 245.104ZM37.0323 241.815V243.485C37.0323 247.102 35.489 249.202 32.7566 249.202C30.0242 249.202 28.5062 247.102 28.5062 243.485V241.815C28.5062 238.197 30.0242 236.148 32.7566 236.148C35.489 236.148 37.0323 238.197 37.0323 241.815ZM32.7566 247.381C34.5023 247.381 35.0083 245.66 35.0083 243.485V241.815C35.0083 239.437 34.5023 237.969 32.7566 237.969C31.0109 237.969 30.5302 239.437 30.5302 241.815V243.485C30.5302 245.66 31.0109 247.381 32.7566 247.381ZM45.2641 239.715L42.7847 249H41.0896L38.0536 236.35H40.2294L42.0257 245.23L44.3027 236.35H46.2255L48.5278 245.306L50.2988 236.35H52.4493L49.4639 249H47.7435L45.2641 239.715ZM54.2699 249V236.35H56.2939V249H54.2699ZM54.1687 233.82V231.543H56.3951V233.82H54.1687ZM59.2289 249V236.35H61.2782V237.59C61.6577 236.831 62.4926 236.148 63.7576 236.148C65.8069 236.148 67.3502 237.564 67.3502 241.106V249H65.3262V241.132C65.3262 238.576 64.466 238.02 63.3781 238.02C61.8854 238.02 61.2529 239.209 61.2529 241.106V249H59.2289ZM76.0231 237.615V236.35H78.0471V248.747C78.0471 252.264 76.5797 253.959 73.6955 253.959C71.7727 253.959 70.6342 253.326 69.9258 251.859L71.4691 250.796C71.9245 251.682 72.4305 252.137 73.6449 252.137C75.3906 252.137 76.0231 250.923 76.0231 248.747V247.887C75.5171 248.722 74.8087 249.202 73.4425 249.202C70.7607 249.202 69.4704 246.774 69.4704 243.485V241.815C69.4704 238.197 71.0643 236.148 73.4425 236.148C74.7834 236.148 75.5677 236.755 76.0231 237.615ZM73.7714 247.381C75.4412 247.381 76.0231 245.66 76.0231 243.485V241.638C76.0231 239.361 75.1629 237.969 73.7714 237.969C72.2534 237.969 71.4944 239.411 71.4944 241.815V243.485C71.4944 245.635 72.1775 247.381 73.7714 247.381ZM86.0431 249V236.35H88.0671V249H86.0431ZM85.9419 233.82V231.543H88.1683V233.82H85.9419ZM91.0021 249V236.35H93.0514V237.59C93.4309 236.831 94.2658 236.148 95.5308 236.148C97.5801 236.148 99.1234 237.564 99.1234 241.106V249H97.0994V241.132C97.0994 238.576 96.2392 238.02 95.1513 238.02C93.6586 238.02 93.0261 239.209 93.0261 241.106V249H91.0021ZM102.053 249V236.35H104.077V249H102.053ZM101.952 233.82V231.543H104.178V233.82H101.952ZM106.127 238.172V236.35H107.417V233.567H109.441V236.35H111.541V238.172H109.441V244.598C109.441 246.343 109.517 247.077 110.807 247.077H111.541V249H110.655C108.151 249 107.417 247.735 107.417 245.104V238.172H106.127ZM113.863 249V236.35H115.887V249H113.863ZM113.762 233.82V231.543H115.988V233.82H113.762ZM118.316 245.306C118.316 242.574 119.961 241.688 122.263 241.688H124.262V240.221C124.262 238.475 123.756 238.02 122.314 238.02C121.099 238.02 120.619 238.197 120.113 239.234L118.569 238.248C119.278 236.78 120.34 236.148 122.339 236.148C124.945 236.148 126.286 237.185 126.286 240.221V249H124.262V247.76C123.882 248.62 123.326 249.202 121.909 249.202C119.581 249.202 118.316 247.76 118.316 245.306ZM124.262 244.142V243.409H122.39C120.897 243.409 120.34 244.092 120.34 245.357C120.34 246.774 121.074 247.33 122.238 247.33C123.326 247.33 124.262 246.976 124.262 244.142ZM128.927 245.104V231.543H130.951V244.598C130.951 245.964 130.901 247.128 132.52 247.128V249C129.788 249 128.927 247.735 128.927 245.104ZM145.745 246.065L147.238 247.102C146.631 248.57 145.315 249.202 143.671 249.202C140.635 249.202 139.243 246.976 139.243 243.485V241.815C139.243 238.222 140.913 236.148 143.671 236.148C145.189 236.148 146.504 236.805 147.238 238.096L145.695 239.158C145.214 238.374 144.556 237.969 143.671 237.969C142.051 237.969 141.267 239.437 141.267 241.815V243.485C141.267 245.66 141.849 247.381 143.671 247.381C144.581 247.381 145.189 247.052 145.745 246.065ZM156.886 241.815V243.485C156.886 247.102 155.343 249.202 152.61 249.202C149.878 249.202 148.36 247.102 148.36 243.485V241.815C148.36 238.197 149.878 236.148 152.61 236.148C155.343 236.148 156.886 238.197 156.886 241.815ZM152.61 247.381C154.356 247.381 154.862 245.66 154.862 243.485V241.815C154.862 239.437 154.356 237.969 152.61 237.969C150.865 237.969 150.384 239.437 150.384 241.815V243.485C150.384 245.66 150.865 247.381 152.61 247.381ZM159.021 249V236.35H161.045V237.59C161.424 236.856 162.183 236.148 163.473 236.148C164.789 236.148 165.877 236.755 166.433 238.146C167.091 236.755 168.103 236.148 169.394 236.148C171.443 236.148 172.936 237.817 172.936 241.106V249H170.912V241.132C170.912 238.678 170.026 238.02 168.963 238.02C167.825 238.02 166.99 238.981 166.99 241.106V249H164.966V241.132C164.966 238.678 164.081 238.02 163.018 238.02C161.854 238.02 161.045 239.082 161.045 241.106V249H159.021ZM177.598 231.543V237.615C178.054 236.755 178.838 236.148 180.179 236.148C182.557 236.148 184.151 238.197 184.151 241.815V243.485C184.151 246.774 182.861 249.202 180.179 249.202C178.813 249.202 178.104 248.722 177.598 247.887V249H175.574V231.543H177.598ZM179.85 247.381C181.444 247.381 182.127 245.635 182.127 243.485V241.815C182.127 239.411 181.368 237.969 179.85 237.969C178.458 237.969 177.598 239.361 177.598 241.638V243.485C177.598 245.66 178.18 247.381 179.85 247.381ZM186.576 249V236.35H188.6V249H186.576ZM186.475 233.82V231.543H188.701V233.82H186.475ZM191.535 249V236.35H193.584V237.59C193.964 236.831 194.799 236.148 196.064 236.148C198.113 236.148 199.656 237.564 199.656 241.106V249H197.632V241.132C197.632 238.576 196.772 238.02 195.684 238.02C194.192 238.02 193.559 239.209 193.559 241.106V249H191.535ZM201.777 245.306C201.777 242.574 203.421 241.688 205.723 241.688H207.722V240.221C207.722 238.475 207.216 238.02 205.774 238.02C204.56 238.02 204.079 238.197 203.573 239.234L202.03 238.248C202.738 236.78 203.801 236.148 205.799 236.148C208.405 236.148 209.746 237.185 209.746 240.221V249H207.722V247.76C207.343 248.62 206.786 249.202 205.369 249.202C203.042 249.202 201.777 247.76 201.777 245.306ZM207.722 244.142V243.409H205.85C204.357 243.409 203.801 244.092 203.801 245.357C203.801 246.774 204.534 247.33 205.698 247.33C206.786 247.33 207.722 246.976 207.722 244.142ZM211.502 238.172V236.35H212.793V233.567H214.817V236.35H216.916V238.172H214.817V244.598C214.817 246.343 214.892 247.077 216.183 247.077H216.916V249H216.031C213.526 249 212.793 247.735 212.793 245.104V238.172H211.502ZM219.239 249V236.35H221.263V249H219.239ZM219.138 233.82V231.543H221.364V233.82H219.138ZM232.218 241.815V243.485C232.218 247.102 230.675 249.202 227.942 249.202C225.21 249.202 223.692 247.102 223.692 243.485V241.815C223.692 238.197 225.21 236.148 227.942 236.148C230.675 236.148 232.218 238.197 232.218 241.815ZM227.942 247.381C229.688 247.381 230.194 245.66 230.194 243.485V241.815C230.194 239.437 229.688 237.969 227.942 237.969C226.196 237.969 225.716 239.437 225.716 241.815V243.485C225.716 245.66 226.196 247.381 227.942 247.381ZM234.352 249V236.35H236.402V237.59C236.781 236.831 237.616 236.148 238.881 236.148C240.93 236.148 242.474 237.564 242.474 241.106V249H240.45V241.132C240.45 238.576 239.589 238.02 238.502 238.02C237.009 238.02 236.376 239.209 236.376 241.106V249H234.352ZM249.279 238.172V236.35H250.57V233.567H252.594V236.35H254.694V238.172H252.594V244.598C252.594 246.343 252.67 247.077 253.96 247.077H254.694V249H253.808C251.303 249 250.57 247.735 250.57 245.104V238.172H249.279ZM256.712 249V231.543H258.761V237.59C259.141 236.831 259.976 236.148 261.241 236.148C263.29 236.148 264.833 237.564 264.833 241.106V249H262.809V241.132C262.809 238.576 261.949 238.02 260.861 238.02C259.369 238.02 258.736 239.209 258.736 241.106V249H256.712ZM273.456 246.065L274.949 247.102C274.265 248.595 273.127 249.202 271.331 249.202C268.421 249.202 266.954 247.001 266.954 243.485V241.815C266.954 238.222 268.396 236.148 271.002 236.148C273.759 236.148 275.075 237.893 275.075 241.815V243.13H268.978V243.485C268.978 245.66 269.585 247.381 271.305 247.381C272.52 247.381 272.95 246.9 273.456 246.065ZM271.002 237.969C269.458 237.969 268.978 239.108 268.978 241.359H273.051C273.051 238.728 272.444 237.969 271.002 237.969ZM284.475 237.868L282.906 239.057C282.476 238.323 282.021 238.02 281.338 238.02C280.199 238.02 279.465 238.981 279.465 241.081V249H277.441V236.35H279.465V237.59C279.845 236.78 280.604 236.148 281.768 236.148C282.957 236.148 283.842 236.73 284.475 237.868ZM284.891 245.306C284.891 242.574 286.536 241.688 288.838 241.688H290.837V240.221C290.837 238.475 290.331 238.02 288.888 238.02C287.674 238.02 287.193 238.197 286.687 239.234L285.144 238.248C285.852 236.78 286.915 236.148 288.914 236.148C291.52 236.148 292.861 237.185 292.861 240.221V249H290.837V247.76C290.457 248.62 289.9 249.202 288.484 249.202C286.156 249.202 284.891 247.76 284.891 245.306ZM290.837 244.142V243.409H288.964C287.472 243.409 286.915 244.092 286.915 245.357C286.915 246.774 287.649 247.33 288.813 247.33C289.9 247.33 290.837 246.976 290.837 244.142ZM297.526 236.35V237.615C297.982 236.755 298.766 236.148 300.107 236.148C302.485 236.148 304.079 238.197 304.079 241.815V243.485C304.079 246.774 302.789 249.202 300.107 249.202C298.741 249.202 298.032 248.722 297.526 247.887V253.807H295.502V236.35H297.526ZM299.778 247.381C301.372 247.381 302.055 245.635 302.055 243.485V241.815C302.055 239.411 301.296 237.969 299.778 237.969C298.386 237.969 297.526 239.361 297.526 241.638V243.485C297.526 245.66 298.108 247.381 299.778 247.381ZM308.806 249.481L308.907 249.127L304.986 236.35H307.162L309.515 244.497L309.894 245.838L312.247 236.35H314.347L310.856 249.405C310.021 252.441 309.388 253.807 306.352 253.807V251.834C307.567 251.834 308.224 251.53 308.806 249.481Z" fill="white"/>
<path d="M318.484 230.172V240.234H317.422V230.172H318.484ZM320.625 232.187V233.047H315.313V232.187H320.625ZM320.625 237.141V238H315.313V237.141H320.625Z" fill="white"/>
<path d="M4.544 3.16L10.052 18.172L15.524 3.16H18.656V28H15.56V11.332L11.276 22.816H8.72L4.544 11.332V28H1.448V3.16H4.544ZM22.0613 3.16H34.1933V5.968H25.1573V13.744H33.3293V16.552H25.1573V25.192H34.1933V28H22.0613V3.16ZM42.7561 28H36.2761V3.16H42.7561C47.1481 3.16 49.9561 6.256 49.9561 14.284V16.876C49.9561 24.904 47.1481 28 42.7561 28ZM42.7561 25.192C45.6361 25.192 46.8601 23.032 46.8601 16.876V14.284C46.8601 8.128 45.6001 5.968 42.7561 5.968H39.3721V25.192H42.7561ZM55.7383 3.16V28H52.6423V3.16H55.7383ZM60.5124 28H57.2724L64.1844 3.16H66.9204L73.8684 28H70.6284L69.2244 22.312H61.9164L60.5124 28ZM65.5524 8.416L62.8164 19.504H68.2884L65.5524 8.416ZM85.6366 3.16H88.7326V28H85.8526L78.1846 10.792V28H75.0886V3.16H77.8606L85.6366 20.548V3.16ZM111.359 16.948C111.359 24.976 108.551 28.288 104.087 28.288C99.623 28.288 96.815 24.976 96.815 16.948V14.212C96.815 6.184 99.623 2.872 104.087 2.872C108.551 2.872 111.359 6.184 111.359 14.212V16.948ZM99.911 14.212V16.948C99.911 23.248 101.135 25.48 104.087 25.48C107.039 25.48 108.263 23.248 108.263 16.948V14.212C108.263 7.912 107.039 5.68 104.087 5.68C101.135 5.68 99.911 7.912 99.911 14.212ZM126.181 6.94L123.841 8.524C122.869 6.868 121.825 5.68 119.449 5.68C117.325 5.68 116.064 7.12 116.064 9.568C116.064 12.268 117.325 13.312 120.385 14.176C124.201 15.256 126.577 17.236 126.577 21.34C126.577 24.58 124.813 28.288 119.773 28.288C116.497 28.288 114.121 26.92 112.609 24.22L115.057 22.564C116.389 24.472 117.505 25.48 119.773 25.48C122.869 25.48 123.517 23.392 123.517 21.484C123.517 19.324 122.833 17.848 119.161 16.84C115.453 15.832 112.969 13.708 112.969 9.568C112.969 6.112 114.949 2.872 119.521 2.872C122.725 2.872 124.741 4.204 126.181 6.94ZM153.875 16.948C153.875 24.976 151.067 28.288 146.603 28.288C142.139 28.288 139.331 24.976 139.331 16.948V14.212C139.331 6.184 142.139 2.872 146.603 2.872C151.067 2.872 153.875 6.184 153.875 14.212V16.948ZM142.427 14.212V16.948C142.427 23.248 143.651 25.48 146.603 25.48C149.555 25.48 150.779 23.248 150.779 16.948V14.212C150.779 7.912 149.555 5.68 146.603 5.68C143.651 5.68 142.427 7.912 142.427 14.212ZM156.276 3.16H168.408V5.968H159.372V14.32H167.544V17.128H159.372V28H156.276V3.16Z" fill="white"/>
<path d="M127.25 4.2H129.636V1.236H130.978V4.2H133.38V5.4168H130.978V14.964H129.636V5.4168H127.25V4.2Z" fill="white"/>
</g>
<defs>
<clipPath id="clip0_1105_1793">
<rect width="333" height="267" fill="white"/>
</clipPath>
<clipPath id="clip1_1105_1793">
<rect width="183" height="130.621" fill="white" transform="translate(0 54.9814)"/>
</clipPath>
</defs>
</svg>
